<svg width="361" height="316" viewBox="0 0 361 316" fill="none" xmlns="http://www.w3.org/2000/svg">
<path d="M64.0626 114.897C67.469 103.08 71.6887 91.8842 77.0173 80.8036C77.6442 79.5008 79.684 79.7026 80.0012 81.1014C84.5261 101.033 85.1706 122.593 78.6169 142.044C73.0856 133.352 68.1145 124.293 64.0626 114.897Z" fill="#DD9E23"/>
<path d="M78.6212 142.05C65.8936 136.944 54.1035 130.998 42.5786 123.993C41.2609 123.192 39.6363 124.497 40.2842 125.844C50.3588 146.78 71.6963 166.629 97.1111 166.454C90.3538 158.754 84.0735 150.629 78.6212 142.05Z" fill="#DD9E23"/>
<path d="M97.1062 166.448C96.7996 154.471 97.4471 142.874 99.1954 131.087C99.4027 129.689 101.383 129.32 102.125 130.547C112.563 147.787 119.555 167.979 119.069 187.809C111.24 181.191 103.809 174.095 97.1062 166.448Z" fill="#DD9E23"/>
<path d="M119.074 187.815C105.512 186.6 92.5163 184.381 79.4441 181.145C77.9362 180.771 76.8215 182.47 77.8619 183.564C93.9067 200.436 120.228 212.953 144.048 205.833C135.305 200.387 126.877 194.42 119.074 187.815Z" fill="#DD9E23"/>
<path d="M144.041 205.829C140.107 194.516 137.203 183.309 135.301 171.618C135.074 170.228 136.846 169.337 137.934 170.3C153.198 183.811 165.927 201.241 171.565 220.208C162.062 216.029 152.792 211.288 144.041 205.829Z" fill="#DD9E23"/>
<path d="M171.572 220.212C158.267 222.761 145.177 224.221 131.714 224.753C130.158 224.815 129.621 226.743 130.953 227.503C151.52 239.238 180.566 243.929 201.184 230.65C191.081 227.834 181.123 224.42 171.572 220.212Z" fill="#DD9E23"/>
<path d="M201.177 230.648C193.831 220.895 187.538 210.958 182.073 200.255C181.425 198.986 182.846 197.645 184.185 198.269C203.091 207.073 220.844 220.305 232.415 236.848C221.875 235.488 211.383 233.5 201.177 230.648Z" fill="#DD9E23"/>
<path d="M264.83 233.234C253.681 233.427 243.097 232.886 233.37 231.626C233.368 231.625 233.366 231.625 233.364 231.625C233.362 231.625 233.361 231.624 233.359 231.624C222.508 230.224 212.307 228.201 203.039 225.611C203.037 225.61 203.035 225.609 203.033 225.608C192.634 222.711 182.959 219.302 174.275 215.476C174.273 215.474 174.27 215.473 174.268 215.472C174.267 215.472 174.267 215.471 174.266 215.471C164.475 211.165 155.481 206.468 147.532 201.508C147.528 201.505 147.523 201.503 147.52 201.5C138.511 195.888 130.354 190.004 123.276 184.011C123.273 184.009 123.271 184.007 123.268 184.005C115.193 177.176 108.016 170.197 101.937 163.262C101.936 163.26 101.935 163.26 101.935 163.259C94.9675 155.321 88.9277 147.351 83.9841 139.573C83.9818 139.568 83.9785 139.565 83.9765 139.562C78.2772 130.606 73.5226 121.741 69.8452 113.211C69.8009 113.108 69.7472 113.01 69.6961 112.91C63.8323 99.8067 59.3913 85.9723 56.5048 71.7781C55.9242 68.9244 52.9998 67.055 49.9732 67.6024C46.9474 68.1486 44.9632 70.9059 45.5445 73.7609C48.6096 88.8321 53.3388 103.525 59.6012 117.433C59.6441 117.528 59.6951 117.616 59.7425 117.707C63.6031 126.573 68.5305 135.744 74.4074 144.978C74.4084 144.98 74.409 144.981 74.41 144.983C79.6381 153.208 85.9987 161.606 93.3168 169.946C93.3227 169.952 93.3276 169.96 93.3329 169.966C99.7643 177.303 107.329 184.663 115.816 191.839C115.817 191.839 115.818 191.841 115.819 191.842C123.306 198.18 131.903 204.385 141.37 210.282C141.371 210.283 141.372 210.284 141.373 210.285C141.377 210.287 141.38 210.289 141.383 210.29C149.788 215.532 159.264 220.484 169.547 225.007C169.551 225.009 169.555 225.01 169.559 225.012C178.738 229.055 188.929 232.65 199.85 235.694C199.853 235.694 199.855 235.696 199.858 235.697C209.67 238.439 220.432 240.576 231.847 242.05C231.849 242.049 231.85 242.05 231.852 242.05C242.146 243.385 253.311 243.958 265.036 243.755C265.921 243.74 266.754 243.531 267.49 243.173C269.318 242.283 270.553 240.469 270.513 238.398C270.456 235.493 267.912 233.181 264.83 233.234Z" fill="#DBAB00"/>
</svg>
