<svg width="24" height="24" viewBox="0 0 24 24" fill="none" xmlns="http://www.w3.org/2000/svg">
<path d="M11.9998 0C5.38278 0 0 5.3832 0 12C0 18.6168 5.38278 24 11.9998 24C18.6167 24 24 18.6168 24 12C24 5.3832 18.6167 0 11.9998 0ZM11.9998 22.4262C6.2508 22.4262 1.5738 17.749 1.5738 12C1.5738 6.25098 6.25074 1.57386 11.9998 1.57386C17.7488 1.57386 22.426 6.25104 22.426 12C22.4261 17.749 17.7487 22.4262 11.9998 22.4262Z" fill="white"/>
<path d="M16.3441 8.07153L10.1562 14.2591L7.65485 11.7583C7.34747 11.4513 6.84953 11.4511 6.54215 11.7585C6.23465 12.066 6.23465 12.564 6.54215 12.8713L9.59993 15.9286C9.75359 16.0821 9.95489 16.1589 10.1562 16.1589C10.3575 16.1589 10.5593 16.0821 10.7129 15.9284C10.7134 15.9277 10.7138 15.9271 10.7146 15.9263L17.4567 9.18423C17.7642 8.87703 17.7642 8.37867 17.4567 8.07147C17.1494 7.76409 16.6511 7.76409 16.3441 8.07153Z" fill="white"/>
</svg>
