<svg width="65" height="60" viewBox="0 0 65 60" fill="none" xmlns="http://www.w3.org/2000/svg">
<path opacity="0.5" fill-rule="evenodd" clip-rule="evenodd" d="M15.1872 12.0903L32.9944 1.80936C35.7199 0.235815 39.0778 0.235816 41.8032 1.80936L59.6104 12.0903C62.3359 13.6639 64.0148 16.5719 64.0148 19.719V40.281C64.0148 43.4281 62.3359 46.3361 59.6104 47.9096L41.8032 58.1906C39.0778 59.7642 35.7199 59.7642 32.9944 58.1906L15.1872 47.9096C12.4618 46.3361 10.7828 43.4281 10.7828 40.281V19.719C10.7828 16.5719 12.4618 13.6639 15.1872 12.0903ZM32.6798 1.26445C35.6 -0.421485 39.1977 -0.421485 42.1178 1.26446L59.925 11.5454C62.8452 13.2314 64.644 16.3471 64.644 19.719V40.281C64.644 43.6529 62.8452 46.7686 59.925 48.4546L42.1178 58.7355C39.1977 60.4215 35.5999 60.4215 32.6798 58.7355L14.8726 48.4545C11.9525 46.7686 10.1536 43.6529 10.1536 40.281V19.719C10.1536 16.3471 11.9525 13.2314 14.8726 11.5454L32.6798 1.26445Z" fill="#434345"/>
<path d="M12.9955 27.5058C11.8082 26.8314 10.3455 26.8314 9.15831 27.5058L1.91854 31.6182C0.731321 32.2926 -3.8147e-05 33.5389 -3.8147e-05 34.8876V43.1124C-3.8147e-05 44.4611 0.731321 45.7074 1.91854 46.3818L9.15831 50.4942C10.3455 51.1686 11.8082 51.1686 12.9955 50.4942L20.2352 46.3818C21.4225 45.7074 22.1538 44.4611 22.1538 43.1124V34.8876C22.1538 33.5389 21.4225 32.2926 20.2352 31.6182L12.9955 27.5058Z" fill="#D4D4D4"/>
</svg>
