<svg width="678" height="289" viewBox="0 0 678 289" fill="none" xmlns="http://www.w3.org/2000/svg">
<path opacity="0.5" d="M-225.736 318.255C-247.224 336.828 -257.17 365.455 -251.829 393.351L-191.084 710.589C-185.743 738.485 -165.925 761.412 -139.096 770.734L166.014 876.747C192.843 886.069 222.607 880.37 244.095 861.796L488.46 650.571C509.947 631.997 519.894 603.37 514.552 575.475L453.808 258.236C448.466 230.34 428.648 207.413 401.819 198.091L96.7099 92.0779C69.8807 82.7558 40.1162 88.4551 18.6284 107.029L-225.736 318.255Z" stroke="#D93833"/>
<path d="M-123.926 348.959C-145.414 367.533 -155.36 396.159 -150.019 424.055L-108.426 641.274C-103.084 669.17 -83.2663 692.097 -56.437 701.419L152.477 774.008C179.306 783.33 209.07 777.631 230.558 759.057L397.879 614.427C419.367 595.853 429.313 567.227 423.972 539.331L382.379 322.112C377.037 294.216 357.22 271.289 330.39 261.967L121.477 189.378C94.6473 180.056 64.8827 185.755 43.395 204.329L-123.926 348.959Z" stroke="#D93833"/>
</svg>
