<svg width="611" height="289" viewBox="0 0 611 289" fill="none" xmlns="http://www.w3.org/2000/svg">
<path opacity="0.5" d="M190.267 219.255C168.78 237.829 158.833 266.456 164.175 294.351L224.919 611.59C230.261 639.486 250.079 662.413 276.908 671.735L582.017 777.748C608.846 787.07 638.611 781.371 660.098 762.797L904.463 551.571C925.951 532.998 935.897 504.371 930.556 476.475L869.811 159.237C864.47 131.341 844.652 108.414 817.822 99.0916L512.713 -6.92138C485.884 -16.2434 456.12 -10.5442 434.632 8.02959L190.267 219.255Z" stroke="#D93833"/>
<path d="M292.078 249.96C270.59 268.533 260.643 297.16 265.985 325.056L307.578 542.275C312.919 570.171 332.737 593.098 359.566 602.42L568.48 675.009C595.309 684.331 625.074 678.632 646.562 660.058L813.882 515.428C835.37 496.854 845.317 468.228 839.975 440.332L798.382 223.113C793.041 195.217 773.223 172.29 746.394 162.968L537.48 90.3786C510.651 81.0565 480.886 86.7558 459.398 105.33L292.078 249.96Z" stroke="#D93833"/>
</svg>
