<svg width="49" height="60" viewBox="0 0 49 60" fill="none" xmlns="http://www.w3.org/2000/svg">
<path opacity="0.5" fill-rule="evenodd" clip-rule="evenodd" d="M16.0334 12.0903L33.8406 1.80936C36.5661 0.235815 39.924 0.235816 42.6494 1.80936L60.4566 12.0903C63.1821 13.6639 64.861 16.5719 64.861 19.719V40.281C64.861 43.4281 63.1821 46.3361 60.4566 47.9096L42.6494 58.1906C39.924 59.7642 36.5661 59.7642 33.8406 58.1906L16.0334 47.9096C13.308 46.3361 11.629 43.4281 11.629 40.281V19.719C11.629 16.5719 13.308 13.6639 16.0334 12.0903ZM33.526 1.26445C36.4461 -0.421485 40.0439 -0.421485 42.964 1.26446L60.7712 11.5454C63.6914 13.2314 65.4902 16.3471 65.4902 19.719V40.281C65.4902 43.6529 63.6914 46.7686 60.7712 48.4546L42.964 58.7355C40.0439 60.4215 36.4461 60.4215 33.526 58.7355L15.7188 48.4545C12.7987 46.7686 10.9998 43.6529 10.9998 40.281V19.719C10.9998 16.3471 12.7987 13.2314 15.7188 11.5454L33.526 1.26445Z" fill="#304AA5"/>
<path opacity="0.3" d="M13.8417 27.5058C12.6544 26.8314 11.1917 26.8314 10.0045 27.5058L2.76473 31.6182C1.57751 32.2926 0.846153 33.5389 0.846153 34.8876V43.1124C0.846153 44.4611 1.57751 45.7074 2.76473 46.3818L10.0045 50.4942C11.1917 51.1686 12.6544 51.1686 13.8417 50.4942L21.0814 46.3818C22.2686 45.7074 23 44.4611 23 43.1124V34.8876C23 33.5389 22.2686 32.2926 21.0814 31.6182L13.8417 27.5058Z" fill="#304AA5"/>
</svg>
