<svg width="99" height="90" viewBox="0 0 99 90" fill="none" xmlns="http://www.w3.org/2000/svg">
<path d="M14.2622 6.72904C16.1111 5.66128 18.3889 5.66128 20.2378 6.72904L31.5122 13.2403C33.3611 14.3081 34.5 16.2814 34.5 18.4169V31.4395C34.5 33.575 33.3611 35.5483 31.5122 36.6161L20.2378 43.1274C18.3889 44.1952 16.1111 44.1952 14.2622 43.1274L2.98779 36.6161C1.13894 35.5483 0 33.575 0 31.4395V18.4169C0 16.2814 1.13894 14.3081 2.98779 13.2403L14.2622 6.72904Z" fill="#FFD7D6"/>
<path opacity="0.5" fill-rule="evenodd" clip-rule="evenodd" d="M91.1852 18.1355L64.4744 2.71404C60.3862 0.353722 55.3494 0.353723 51.2612 2.71404L24.5504 18.1355C20.4622 20.4958 17.9438 24.8579 17.9438 29.5785V60.4215C17.9438 65.1421 20.4622 69.5042 24.5504 71.8645L51.2612 87.286C55.3494 89.6463 60.3863 89.6463 64.4744 87.286L91.1852 71.8645C95.2734 69.5042 97.7918 65.1421 97.7918 60.4215V29.5785C97.7918 24.8579 95.2734 20.4958 91.1852 18.1355ZM64.9463 1.89668C60.5661 -0.632228 55.1695 -0.632227 50.7893 1.89668L24.0785 17.3182C19.6983 19.8471 17 24.5207 17 29.5785V60.4215C17 65.4793 19.6983 70.1529 24.0785 72.6818L50.7893 88.1033C55.1695 90.6322 60.5661 90.6322 64.9463 88.1033L91.6571 72.6818C96.0373 70.1529 98.7356 65.4793 98.7356 60.4215V29.5785C98.7356 24.5207 96.0373 19.8471 91.6571 17.3182L64.9463 1.89668Z" fill="#D93833"/>
<path d="M75.1328 34.0266C75.1328 33.5952 74.783 33.2453 74.3516 33.2453C74.3309 33.2453 74.3105 33.2469 74.2902 33.2484C71.303 33.2153 68.8828 30.7761 68.8828 27.7812C68.8828 27.3498 68.533 27 68.1016 27H49.3516C48.9202 27 48.5703 27.3498 48.5703 27.7812C48.5703 30.7967 46.117 33.25 43.1016 33.25C42.6702 33.25 42.3203 33.5998 42.3203 34.0312V46.9523C42.3203 56.7747 48.5086 60.6075 53.9685 63.9891C55.5002 64.938 56.9471 65.834 58.2498 66.8377C58.3903 66.9459 58.5584 67 58.7266 67C58.8948 67 59.063 66.9459 59.2034 66.8377C60.5159 65.8266 61.9674 64.9263 63.5041 63.9731C69.1086 60.4968 75.1328 56.7139 75.1328 46.9523V34.0312L75.1327 34.0289L75.1328 34.0266ZM73.5703 46.9523C73.5703 55.8909 68.0342 59.3246 62.6804 62.6453C61.3494 63.4709 59.9783 64.3213 58.7265 65.2413C57.4829 64.328 56.1171 63.482 54.7913 62.6608C49.4283 59.3391 43.8828 55.9045 43.8828 46.9523V34.7694C47.1369 34.408 49.7283 31.8166 50.0897 28.5625H67.3634C67.7248 31.8166 70.3162 34.408 73.5703 34.7694V46.9523Z" fill="#D93833"/>
<path d="M58.7266 33.7188C52.2648 33.7188 47.0078 38.9758 47.0078 45.4375C47.0078 51.8992 52.2648 57.1562 58.7266 57.1562C65.1883 57.1562 70.4453 51.8992 70.4453 45.4375C70.4453 38.9758 65.1883 33.7188 58.7266 33.7188ZM58.7266 55.5938C53.1263 55.5938 48.5703 51.0377 48.5703 45.4375C48.5703 39.8373 53.1263 35.2812 58.7266 35.2812C64.3268 35.2812 68.8828 39.8373 68.8828 45.4375C68.8828 51.0377 64.3268 55.5938 58.7266 55.5938Z" fill="#D93833"/>
<path d="M59.092 44.8027C57.9274 44.1871 57.1641 43.7395 57.1641 43.1492C57.1641 42.2876 57.865 41.5867 58.7266 41.5867C59.5881 41.5867 60.2891 42.2876 60.2891 43.1492C60.2891 43.5806 60.6389 43.9304 61.0703 43.9304C61.5017 43.9304 61.8516 43.5806 61.8516 43.1492C61.8516 41.6957 60.8541 40.4709 59.5078 40.1231V39.2429C59.5078 38.8115 59.158 38.4617 58.7266 38.4617C58.2952 38.4617 57.9453 38.8115 57.9453 39.2429V40.1231C56.599 40.4709 55.6016 41.6957 55.6016 43.1492C55.6016 44.7251 57.068 45.5002 58.3618 46.1841C59.5259 46.7995 60.2891 47.2469 60.2891 47.8367C60.2891 48.6982 59.5881 49.3992 58.7266 49.3992C57.865 49.3992 57.1641 48.6982 57.1641 47.8367C57.1641 47.4053 56.8142 47.0554 56.3828 47.0554C55.9514 47.0554 55.6016 47.4053 55.6016 47.8367C55.6016 49.2901 56.599 50.5149 57.9453 50.8628V51.7429C57.9453 52.1743 58.2952 52.5242 58.7266 52.5242C59.158 52.5242 59.5078 52.1743 59.5078 51.7429V50.8628C60.8541 50.5149 61.8516 49.2901 61.8516 47.8367C61.8516 46.2614 60.3855 45.4864 59.092 44.8027Z" fill="#D93833"/>
</svg>
