<svg width="99" height="90" viewBox="0 0 99 90" fill="none" xmlns="http://www.w3.org/2000/svg">
<path d="M14.2622 6.72904C16.1111 5.66128 18.3889 5.66128 20.2378 6.72904L31.5122 13.2403C33.3611 14.3081 34.5 16.2814 34.5 18.4169V31.4395C34.5 33.575 33.3611 35.5483 31.5122 36.6161L20.2378 43.1274C18.3889 44.1952 16.1111 44.1952 14.2622 43.1274L2.98779 36.6161C1.13894 35.5483 0 33.575 0 31.4395V18.4169C0 16.2814 1.13894 14.3081 2.98779 13.2403L14.2622 6.72904Z" fill="#FFD7D6"/>
<path opacity="0.5" fill-rule="evenodd" clip-rule="evenodd" d="M91.1852 18.1355L64.4744 2.71404C60.3862 0.353722 55.3494 0.353723 51.2612 2.71404L24.5504 18.1355C20.4622 20.4958 17.9438 24.8579 17.9438 29.5785V60.4215C17.9438 65.1421 20.4622 69.5042 24.5504 71.8645L51.2612 87.286C55.3494 89.6463 60.3863 89.6463 64.4744 87.286L91.1852 71.8645C95.2734 69.5042 97.7918 65.1421 97.7918 60.4215V29.5785C97.7918 24.8579 95.2734 20.4958 91.1852 18.1355ZM64.9463 1.89668C60.5661 -0.632228 55.1695 -0.632227 50.7893 1.89668L24.0785 17.3182C19.6983 19.8471 17 24.5207 17 29.5785V60.4215C17 65.4793 19.6983 70.1529 24.0785 72.6818L50.7893 88.1033C55.1695 90.6322 60.5661 90.6322 64.9463 88.1033L91.6571 72.6818C96.0373 70.1529 98.7356 65.4793 98.7356 60.4215V29.5785C98.7356 24.5207 96.0373 19.8471 91.6571 17.3182L64.9463 1.89668Z" fill="#D93833"/>
<path d="M74.6445 28.0845H41.3551C39.5026 28.0845 38 29.6567 38 31.5811V58.4187C38 60.3431 39.5026 61.9153 41.3551 61.9153H74.6445C76.4974 61.9153 78 60.3431 78 58.4187V37.4093C78 37.4066 78 37.4039 78 37.4016C78 37.3988 78 37.3965 78 37.3938V31.5811C78 29.6567 76.4974 28.0845 74.6445 28.0845ZM41.3551 29.4775H74.6445C75.7289 29.4775 76.607 30.4247 76.607 31.5811V36.7412H39.393V31.5811C39.393 30.4247 40.2707 29.4775 41.3551 29.4775ZM74.6445 60.5223H41.3551C40.2707 60.5223 39.393 59.5751 39.393 58.4187V38.1342H76.607V58.4187C76.607 59.5751 75.7289 60.5223 74.6445 60.5223Z" fill="#D93833"/>
<path d="M48.4573 35.5371C49.8204 35.5371 50.9293 34.3893 50.9293 32.978C50.9293 31.5671 49.82 30.4189 48.4573 30.4189C47.0942 30.4189 45.9849 31.5671 45.9849 32.978C45.9849 34.3889 47.0942 35.5371 48.4573 35.5371ZM48.4573 31.812C49.0519 31.812 49.5362 32.3351 49.5362 32.978C49.5362 33.6213 49.0519 34.1441 48.4573 34.1441C47.8622 34.1441 47.3779 33.6213 47.3779 32.978C47.3779 32.3351 47.8622 31.812 48.4573 31.812Z" fill="#D93833"/>
<path d="M54.2269 35.5371C55.59 35.5371 56.6989 34.3893 56.6989 32.978C56.6989 31.5671 55.59 30.4189 54.2269 30.4189C52.8638 30.4189 51.7549 31.5671 51.7549 32.978C51.7549 34.3889 52.8638 35.5371 54.2269 35.5371ZM54.2269 31.812C54.822 31.812 55.3059 32.3351 55.3059 32.978C55.3059 33.6213 54.822 34.1441 54.2269 34.1441C53.6322 34.1441 53.1479 33.6213 53.1479 32.978C53.1479 32.3351 53.6318 31.812 54.2269 31.812Z" fill="#D93833"/>
<path d="M42.6869 35.5371C44.05 35.5371 45.1585 34.3893 45.1585 32.978C45.1585 31.5671 44.05 30.4189 42.6869 30.4189C41.3234 30.4189 40.2148 31.5671 40.2148 32.978C40.2148 34.3889 41.3234 35.5371 42.6869 35.5371ZM42.6869 31.812C43.2815 31.812 43.7655 32.3351 43.7655 32.978C43.7655 33.6213 43.2819 34.1441 42.6869 34.1441C42.0914 34.1441 41.6079 33.6213 41.6079 32.978C41.6079 32.3351 42.0918 31.812 42.6869 31.812Z" fill="#D93833"/>
<path d="M66.1156 47.4078L64.847 47.2858C64.6985 46.7852 64.4944 46.3032 64.2383 45.8484L65.0355 44.8849C65.264 44.6089 65.2458 44.2047 64.9935 43.9505L63.349 42.2893C63.0952 42.0324 62.6871 42.0125 62.4092 42.243L61.4417 43.0453C60.9862 42.7915 60.5046 42.5878 60.0048 42.4385L59.8831 41.1652C59.8493 40.8057 59.5508 40.5286 59.1897 40.5223H56.8316C56.4701 40.5286 56.1716 40.8057 56.1382 41.1656L56.0161 42.4312C55.5147 42.5789 55.0316 42.7829 54.5761 43.0391L53.6118 42.2415C53.335 42.0122 52.9292 42.0312 52.6754 42.2854L51.0107 43.947C50.7557 44.2012 50.7367 44.6078 50.9664 44.8849L51.7675 45.8512C51.5144 46.3059 51.3111 46.7871 51.1615 47.2858L49.8851 47.4078C49.5255 47.4413 49.2492 47.7405 49.2441 48.1012V50.4563C49.2492 50.817 49.5255 51.1159 49.8851 51.1493L51.1537 51.2713C51.3022 51.7719 51.5063 52.2539 51.7624 52.7087L50.9652 53.6722C50.7355 53.9493 50.7549 54.3559 51.0099 54.6097L52.675 56.2709C52.9292 56.5247 53.335 56.5434 53.6118 56.3141L54.5796 55.5118C55.0347 55.766 55.5167 55.9693 56.0161 56.119L56.1382 57.3927C56.172 57.7518 56.4705 58.0286 56.8316 58.0348H59.1897C59.5508 58.0286 59.8497 57.7514 59.8831 57.3915L60.0048 56.126C60.5062 55.9783 60.9893 55.7742 61.4449 55.5181L62.4092 56.3156C62.6859 56.545 63.0917 56.5259 63.3459 56.2717L65.0102 54.6101C65.2652 54.3559 65.2843 53.9493 65.0545 53.6722L64.2535 52.706C64.5069 52.2508 64.7102 51.77 64.8598 51.2709L66.1164 51.1493C66.4756 51.1151 66.7515 50.8166 66.7566 50.4559V48.1012C66.7515 47.7402 66.4752 47.4413 66.1156 47.4078ZM65.3635 49.8243L64.2519 49.9319C63.9511 49.9611 63.7023 50.1791 63.6343 50.4741C63.4804 51.1563 63.2052 51.8054 62.8208 52.39C62.654 52.6453 62.6727 52.9796 62.867 53.2147L63.5775 54.0726L62.8107 54.8371L61.9521 54.1254C61.7158 53.9295 61.3792 53.9113 61.123 54.0803C60.5419 54.4655 59.894 54.738 59.2127 54.8837C58.9141 54.9537 58.6938 55.2063 58.6654 55.5115L58.5577 56.6417H57.4636L57.3555 55.5115C57.3268 55.2075 57.1052 54.9568 56.8075 54.8903C56.1246 54.738 55.4751 54.4628 54.8905 54.0788C54.6355 53.9144 54.3032 53.9338 54.0692 54.127L53.2106 54.8379L52.4445 54.0729L53.1554 53.2147C53.3517 52.978 53.3696 52.6407 53.1994 52.3845C52.8138 51.8046 52.5405 51.1574 52.3932 50.4769C52.3241 50.1799 52.0726 49.9603 51.7686 49.9319L50.6372 49.8235V48.7336L51.7682 48.6252C52.0695 48.5964 52.3186 48.378 52.3866 48.083C52.5405 47.4008 52.8161 46.7517 53.2001 46.1672C53.3669 45.9118 53.3482 45.5775 53.1539 45.3424L52.4434 44.4846L53.2102 43.72L54.0692 44.4317C54.3056 44.628 54.6421 44.6459 54.8979 44.4768C55.479 44.0916 56.1269 43.8191 56.8087 43.6734C57.1068 43.6034 57.3272 43.3508 57.3559 43.0457L57.4636 41.9154H58.5577L58.6658 43.0457C58.6945 43.3496 58.9157 43.6003 59.2138 43.6668C59.8967 43.8191 60.5462 44.0943 61.1308 44.4783C61.3858 44.6428 61.7177 44.6233 61.9521 44.4301L62.8076 43.7216L63.5593 44.4814L62.8457 45.3424C62.6494 45.5791 62.6315 45.9165 62.8017 46.1726C63.1873 46.7525 63.4606 47.3997 63.6079 48.0803C63.6771 48.3772 63.9285 48.5968 64.2325 48.6252L65.3635 48.7336V49.8243Z" fill="#D93833"/>
<path d="M58.0017 44.3687C55.2911 44.3722 53.0958 46.5717 53.0981 49.2828C53.1005 51.9934 55.2992 54.1895 58.0103 54.1883C60.721 54.1871 62.9182 51.9891 62.9182 49.2785C62.9131 46.5663 60.714 44.3698 58.0017 44.3687ZM58.0017 52.7953C56.0603 52.7918 54.4888 51.2157 54.4912 49.2742C54.4935 47.3327 56.0688 45.7605 58.0103 45.7617C59.9518 45.7629 61.5251 47.337 61.5251 49.2785C61.5213 51.2215 59.9452 52.7949 58.0017 52.7953Z" fill="#D93833"/>
</svg>
