<svg width="100" height="90" viewBox="0 0 100 90" fill="none" xmlns="http://www.w3.org/2000/svg">
<path d="M14.2622 6.72904C16.1111 5.66128 18.3889 5.66128 20.2378 6.72904L31.5122 13.2403C33.3611 14.3081 34.5 16.2814 34.5 18.4169V31.4395C34.5 33.575 33.3611 35.5483 31.5122 36.6161L20.2378 43.1274C18.3889 44.1952 16.1111 44.1952 14.2622 43.1274L2.98779 36.6161C1.13894 35.5483 0 33.575 0 31.4395V18.4169C0 16.2814 1.13894 14.3081 2.98779 13.2403L14.2622 6.72904Z" fill="#FFD7D6"/>
<path opacity="0.5" fill-rule="evenodd" clip-rule="evenodd" d="M91.5055 18.1355L64.7948 2.71404C60.7066 0.353722 55.6697 0.353723 51.5815 2.71404L24.8707 18.1355C20.7825 20.4958 18.2641 24.8579 18.2641 29.5785V60.4215C18.2641 65.1421 20.7825 69.5042 24.8707 71.8645L51.5815 87.286C55.6697 89.6463 60.7066 89.6463 64.7948 87.286L91.5055 71.8645C95.5937 69.5042 98.1122 65.1421 98.1122 60.4215V29.5785C98.1122 24.8579 95.5937 20.4958 91.5055 18.1355ZM65.2667 1.89668C60.8865 -0.632228 55.4898 -0.632227 51.1096 1.89668L24.3988 17.3182C20.0186 19.8471 17.3203 24.5207 17.3203 29.5785V60.4215C17.3203 65.4793 20.0186 70.1529 24.3988 72.6818L51.1096 88.1033C55.4898 90.6322 60.8865 90.6322 65.2667 88.1033L91.9774 72.6818C96.3576 70.1529 99.056 65.4793 99.056 60.4215V29.5785C99.056 24.5207 96.3576 19.8471 91.9774 17.3182L65.2667 1.89668Z" fill="#D93833"/>
<path d="M60.3906 41.9453H55.6094C55.2426 41.9453 54.9453 42.2427 54.9453 42.6094V47.3906C54.9453 47.7573 55.2426 48.0547 55.6094 48.0547H60.3906C60.7574 48.0547 61.0547 47.7573 61.0547 47.3906V42.6094C61.0547 42.2427 60.7574 41.9453 60.3906 41.9453ZM59.7266 46.7266H56.2734V43.2734H59.7266V46.7266Z" fill="#D93833"/>
<path d="M72.7422 31.5859C71.4972 31.5859 70.4844 32.5988 70.4844 33.8438C70.4844 35.0887 71.4972 36.1016 72.7422 36.1016C73.9872 36.1016 75 35.0887 75 33.8438C75 32.5988 73.9872 31.5859 72.7422 31.5859ZM72.7422 34.7734C72.2295 34.7734 71.8125 34.3564 71.8125 33.8438C71.8125 33.3311 72.2295 32.9141 72.7422 32.9141C73.2548 32.9141 73.6719 33.3311 73.6719 33.8438C73.6719 34.3564 73.2548 34.7734 72.7422 34.7734Z" fill="#D93833"/>
<path d="M69.3284 33.3723C69.2049 33.2489 69.0335 33.1777 68.8589 33.1777C68.6836 33.1777 68.5122 33.2488 68.3887 33.3723C68.2652 33.4958 68.1948 33.6671 68.1948 33.8418C68.1948 34.0164 68.2652 34.1878 68.3887 34.3113C68.5129 34.4347 68.6836 34.5059 68.8589 34.5059C69.0335 34.5059 69.2049 34.4348 69.3284 34.3113C69.4519 34.1878 69.5229 34.0164 69.5229 33.8418C69.5229 33.6671 69.4519 33.4958 69.3284 33.3723Z" fill="#D93833"/>
<path d="M68.5942 45.6641C68.8784 46.586 69.7383 47.2578 70.7522 47.2578C71.9972 47.2578 73.01 46.245 73.01 45C73.01 43.755 71.9971 42.7422 70.7522 42.7422C69.7382 42.7422 68.8784 43.414 68.5942 44.3359H64.5079V39.1562C64.5079 38.7896 64.2106 38.4922 63.8439 38.4922H62.7814V34.5058H66.5016C66.8683 34.5058 67.1656 34.2085 67.1656 33.8418C67.1656 33.4751 66.8683 33.1777 66.5016 33.1777H62.1173C61.7505 33.1777 61.4532 33.4751 61.4532 33.8418V38.4922H58.6642V34.406C59.586 34.1217 60.2579 33.262 60.2579 32.248C60.2579 31.003 59.2451 29.9902 58.0001 29.9902C56.7551 29.9902 55.7423 31.003 55.7423 32.248C55.7423 33.262 56.4142 34.1218 57.336 34.406V38.4922H52.1564C51.7896 38.4922 51.4923 38.7896 51.4923 39.1562V40.2188H47.5059V32.4164C48.4288 32.1328 49.1017 31.2725 49.1017 30.2578C49.1017 29.0128 48.0888 28 46.8439 28C45.5989 28 44.586 29.0128 44.586 30.2578C44.586 31.271 45.2569 32.1303 46.1777 32.4152V40.8828C46.1777 41.2495 46.475 41.5469 46.8418 41.5469H51.4923V44.3359H47.4061C47.1218 43.414 46.2619 42.7422 45.248 42.7422C44.0031 42.7422 42.9902 43.755 42.9902 45C42.9902 46.245 44.0031 47.2578 45.248 47.2578C46.262 47.2578 47.1218 46.586 47.4061 45.6641H51.4923V50.8438C51.4923 51.2104 51.7896 51.5078 52.1564 51.5078H53.2189V55.4942H49.4986C49.1319 55.4942 48.8346 55.7915 48.8346 56.1582C48.8346 56.5249 49.1319 56.8223 49.4986 56.8223H53.8829C54.2497 56.8223 54.547 56.5249 54.547 56.1582V51.5078H57.336V55.594C56.4142 55.8783 55.7423 56.738 55.7423 57.752C55.7423 58.997 56.7551 60.0098 58.0001 60.0098C59.2451 60.0098 60.2579 58.997 60.2579 57.752C60.2579 56.738 59.586 55.8782 58.6642 55.594V51.5078H63.8439C64.2106 51.5078 64.5079 51.2104 64.5079 50.8438V49.7812H68.4944V57.5836C67.5714 57.8672 66.8985 58.7275 66.8985 59.7422C66.8985 60.9872 67.9114 62 69.1564 62C70.4013 62 71.4142 60.9872 71.4142 59.7422C71.4142 58.729 70.7433 57.8697 69.8225 57.5848V49.1172C69.8225 48.7505 69.5252 48.4531 69.1584 48.4531H64.5079V45.6641H68.5942ZM70.7522 44.0703C71.2648 44.0703 71.6819 44.4873 71.6819 45C71.6819 45.5127 71.2648 45.9297 70.7522 45.9297C70.2395 45.9297 69.8225 45.5127 69.8225 45C69.8225 44.4873 70.2395 44.0703 70.7522 44.0703ZM46.8439 31.1875C46.3312 31.1875 45.9142 30.7705 45.9142 30.2578C45.9142 29.7452 46.3312 29.3281 46.8439 29.3281C47.3565 29.3281 47.7735 29.7452 47.7735 30.2578C47.7735 30.7705 47.3565 31.1875 46.8439 31.1875ZM45.248 45.9297C44.7354 45.9297 44.3184 45.5127 44.3184 45C44.3184 44.4873 44.7354 44.0703 45.248 44.0703C45.7607 44.0703 46.1777 44.4873 46.1777 45C46.1777 45.5127 45.7607 45.9297 45.248 45.9297ZM57.0704 32.248C57.0704 31.7354 57.4875 31.3183 58.0001 31.3183C58.5128 31.3183 58.9298 31.7354 58.9298 32.248C58.9298 32.7607 58.5128 33.1777 58.0001 33.1777C57.4875 33.1777 57.0704 32.7607 57.0704 32.248ZM58.9298 57.752C58.9298 58.2646 58.5128 58.6817 58.0001 58.6817C57.4875 58.6817 57.0704 58.2646 57.0704 57.752C57.0704 57.2393 57.4875 56.8223 58.0001 56.8223C58.5128 56.8223 58.9298 57.2393 58.9298 57.752ZM63.1798 50.1797H52.8204V39.8203H63.1798V50.1797ZM69.1564 58.8125C69.669 58.8125 70.086 59.2295 70.086 59.7422C70.086 60.2548 69.669 60.6719 69.1564 60.6719C68.6437 60.6719 68.2267 60.2548 68.2267 59.7422C68.2267 59.2295 68.6437 58.8125 69.1564 58.8125Z" fill="#D93833"/>
<path d="M43.2578 53.8984C42.0128 53.8984 41 54.9113 41 56.1562C41 57.4012 42.0128 58.4141 43.2578 58.4141C44.5028 58.4141 45.5156 57.4012 45.5156 56.1562C45.5156 54.9113 44.5028 53.8984 43.2578 53.8984ZM43.2578 57.0859C42.7452 57.0859 42.3281 56.6689 42.3281 56.1562C42.3281 55.6436 42.7452 55.2266 43.2578 55.2266C43.7705 55.2266 44.1875 55.6436 44.1875 56.1562C44.1875 56.6689 43.7705 57.0859 43.2578 57.0859Z" fill="#D93833"/>
<path d="M47.6121 55.6887C47.4886 55.5652 47.3172 55.4941 47.1426 55.4941C46.9679 55.4941 46.7966 55.5651 46.6731 55.6887C46.5496 55.8122 46.4785 55.9835 46.4785 56.1582C46.4785 56.3329 46.5496 56.5042 46.6731 56.6276C46.7966 56.7511 46.9679 56.8223 47.1426 56.8223C47.3172 56.8223 47.4886 56.7512 47.6121 56.6276C47.7356 56.5042 47.8066 56.3329 47.8066 56.1582C47.8066 55.9835 47.7356 55.8122 47.6121 55.6887Z" fill="#D93833"/>
</svg>
