<svg width="100" height="90" viewBox="0 0 100 90" fill="none" xmlns="http://www.w3.org/2000/svg">
<path d="M14.2622 6.72904C16.1111 5.66128 18.3889 5.66128 20.2378 6.72904L31.5122 13.2403C33.3611 14.3081 34.5 16.2814 34.5 18.4169V31.4395C34.5 33.575 33.3611 35.5483 31.5122 36.6161L20.2378 43.1274C18.3889 44.1952 16.1111 44.1952 14.2622 43.1274L2.98779 36.6161C1.13894 35.5483 0 33.575 0 31.4395V18.4169C0 16.2814 1.13894 14.3081 2.98779 13.2403L14.2622 6.72904Z" fill="#FFD7D6"/>
<path opacity="0.5" fill-rule="evenodd" clip-rule="evenodd" d="M91.5055 18.1355L64.7948 2.71404C60.7066 0.353722 55.6697 0.353723 51.5815 2.71404L24.8707 18.1355C20.7825 20.4958 18.2641 24.8579 18.2641 29.5785V60.4215C18.2641 65.1421 20.7825 69.5042 24.8707 71.8645L51.5815 87.286C55.6697 89.6463 60.7066 89.6463 64.7948 87.286L91.5055 71.8645C95.5937 69.5042 98.1122 65.1421 98.1122 60.4215V29.5785C98.1122 24.8579 95.5937 20.4958 91.5055 18.1355ZM65.2667 1.89668C60.8865 -0.632228 55.4898 -0.632227 51.1096 1.89668L24.3988 17.3182C20.0186 19.8471 17.3203 24.5207 17.3203 29.5785V60.4215C17.3203 65.4793 20.0186 70.1529 24.3988 72.6818L51.1096 88.1033C55.4898 90.6322 60.8865 90.6322 65.2667 88.1033L91.9774 72.6818C96.3576 70.1529 99.056 65.4793 99.056 60.4215V29.5785C99.056 24.5207 96.3576 19.8471 91.9774 17.3182L65.2667 1.89668Z" fill="#D93833"/>
<g clip-path="url(#clip0)">
<path d="M65.4863 26.4486C63.1066 25.4874 60.5879 25 58 25C52.6578 25 47.6354 27.0803 43.8579 30.8579C40.0804 34.6354 38 39.6578 38 45C38 49.4094 39.4699 53.7144 42.1497 57.1959C41.5186 58.2195 41.6455 59.5815 42.532 60.4681C43.0498 60.9859 43.7301 61.2447 44.4103 61.2447C45.0905 61.2447 45.7707 60.9859 46.2886 60.4681C47.3242 59.4323 47.3242 57.7472 46.2886 56.7115C45.4893 55.9123 44.3035 55.7305 43.3277 56.1647C40.8954 52.9694 39.5625 49.0322 39.5625 45C39.5625 34.8335 47.8335 26.5625 58 26.5625C60.3864 26.5625 62.7083 27.0116 64.901 27.8973C65.3013 28.059 65.7564 27.8656 65.918 27.4656C66.0797 27.0655 65.8863 26.6102 65.4863 26.4486ZM43.637 57.8163C43.6404 57.8129 43.6441 57.8101 43.6476 57.8067C43.6479 57.8065 43.6482 57.8063 43.6485 57.806C43.6552 57.8005 43.6609 57.7945 43.6673 57.7888C43.8766 57.5947 44.143 57.4965 44.4103 57.4965C44.6904 57.4965 44.9705 57.6031 45.1837 57.8163C45.6102 58.2427 45.6102 58.9367 45.1838 59.3631C44.7573 59.7896 44.0634 59.7897 43.637 59.3631C43.2105 58.9367 43.2105 58.2427 43.637 57.8163Z" fill="#D93833"/>
<path d="M73.8504 32.8042C74.4815 31.7806 74.3545 30.4186 73.468 29.5321C72.4323 28.4965 70.7472 28.4965 69.7115 29.5321C68.6759 30.5678 68.6759 32.2529 69.7115 33.2887C70.2293 33.8065 70.9095 34.0654 71.5898 34.0654C71.9594 34.0654 72.3288 33.9883 72.6724 33.8354C75.1047 37.0307 76.4376 40.9679 76.4376 45.0001C76.4376 55.1665 68.1666 63.4376 58.0001 63.4376C55.6257 63.4376 53.3149 62.9929 51.1318 62.1158C50.7315 61.9548 50.2765 62.1491 50.1156 62.5496C49.9547 62.95 50.149 63.4049 50.5494 63.5658C52.9185 64.5175 55.4252 65.0001 58.0001 65.0001C63.3423 65.0001 68.3647 62.9197 72.1423 59.1422C75.9198 55.3648 78.0001 50.3422 78.0001 45.0001C78.0001 40.5906 76.5302 36.2857 73.8504 32.8042ZM72.3631 32.1837C72.3598 32.1871 72.3561 32.1898 72.3527 32.1931C72.3523 32.1934 72.3519 32.1937 72.3516 32.194C72.3427 32.2013 72.3347 32.2094 72.3262 32.2171C71.8977 32.6087 71.2309 32.5983 70.8164 32.1837C70.3899 31.7573 70.3899 31.0634 70.8164 30.6369C71.0296 30.4237 71.3097 30.3171 71.5898 30.3171C71.8698 30.3171 72.1499 30.4237 72.3631 30.6369C72.7896 31.0633 72.7896 31.7572 72.3631 32.1837Z" fill="#D93833"/>
<path d="M67.4145 39.1535L62.9076 36.5514C62.6659 36.4119 62.368 36.4119 62.1263 36.5514L58.01 38.928L53.8937 36.5514C53.652 36.4119 53.3541 36.4119 53.1124 36.5514L48.6055 39.1535C48.3637 39.2931 48.2148 39.551 48.2148 39.8301V45.0343C48.2148 45.3134 48.3637 45.5713 48.6055 45.7109L52.7218 48.0874V52.8406C52.7218 53.1196 52.8707 53.3776 53.1124 53.5171L57.6194 56.1193C57.7402 56.1891 57.8751 56.224 58.01 56.224C58.1449 56.224 58.2798 56.1891 58.4006 56.1193L62.9076 53.5171C63.1493 53.3776 63.2982 53.1196 63.2982 52.8406V48.0874L67.4145 45.7109C67.6562 45.5713 67.8052 45.3134 67.8052 45.0343V39.8301C67.8052 39.551 67.6562 39.2931 67.4145 39.1535ZM49.7774 44.5834V40.2812H49.7773L53.503 38.1302L57.2288 40.2812V44.5833L55.3659 45.6588L53.5031 46.7344L49.7774 44.5834ZM58.01 54.5406L54.2843 52.3895V48.0875L56.1471 47.012L58.0099 45.9364L59.8727 47.012L61.7355 48.0875V52.3895H61.7357L58.01 54.5406ZM66.2427 44.5833L62.517 46.7343L60.6541 45.6588L58.7913 44.5832V40.2811L62.517 38.1302L66.2427 40.2812V44.5833Z" fill="#D93833"/>
</g>
<defs>
<clipPath id="clip0">
<rect width="40" height="40" fill="white" transform="translate(38 25)"/>
</clipPath>
</defs>
</svg>
