<svg width="274" height="396" viewBox="0 0 274 396" fill="none" xmlns="http://www.w3.org/2000/svg">
<path opacity="0.5" d="M130.467 27.9608C120.934 24.6518 110.361 26.6796 102.729 33.2805L39.3027 88.1378C31.6707 94.7387 28.1401 104.91 30.0406 114.82L45.8354 197.177C47.736 207.087 54.7791 215.23 64.3116 218.539L143.532 246.039C153.065 249.348 163.639 247.32 171.271 240.719L234.696 185.862C242.328 179.261 245.859 169.09 243.959 159.18L228.164 76.8227C226.263 66.9128 219.22 58.7696 209.688 55.4606L130.467 27.9608Z" stroke="#304AA5"/>
<path opacity="0.5" d="M59.71 291.631C54.8954 289.96 49.5549 290.984 45.7003 294.318L20.9965 315.684C17.1418 319.018 15.3586 324.155 16.3185 329.16L22.4704 361.238C23.4303 366.243 26.9876 370.356 31.8021 372.027L62.6579 382.738C67.4725 384.409 72.8129 383.385 76.6676 380.051L101.371 358.685C105.226 355.351 107.009 350.214 106.049 345.209L99.8974 313.131C98.9375 308.126 95.3803 304.013 90.5657 302.342L59.71 291.631Z" stroke="#304AA5"/>
<path d="M135.852 55.7265C126.32 52.4175 115.746 54.4453 108.114 61.0462L65.7069 97.7242C58.0749 104.325 54.5442 114.496 56.4448 124.406L67.0054 179.471C68.9059 189.381 75.949 197.524 85.4815 200.833L138.449 219.219C147.982 222.528 158.555 220.501 166.187 213.9L208.594 177.222C216.226 170.621 219.757 160.45 217.856 150.54L207.296 95.4752C205.395 85.5653 198.352 77.4221 188.82 74.1131L135.852 55.7265Z" stroke="#304AA5"/>
</svg>
