<svg width="214" height="453" viewBox="0 0 214 453" fill="none" xmlns="http://www.w3.org/2000/svg">
<path opacity="0.5" d="M70.4669 27.9608C60.9343 24.6518 50.3606 26.6796 42.7286 33.2805L-20.6973 88.1378C-28.3293 94.7387 -31.8599 104.91 -29.9594 114.82L-14.1646 197.177C-12.264 207.087 -5.22091 215.23 4.31161 218.539L83.5323 246.039C93.0649 249.348 103.639 247.32 111.271 240.719L174.696 185.862C182.328 179.261 185.859 169.09 183.959 159.18L168.164 76.8227C166.263 66.9128 159.22 58.7696 149.688 55.4606L70.4669 27.9608Z" stroke="#D93833"/>
<path opacity="0.5" d="M-7.06257 326.593C-11.8771 324.921 -17.2176 325.945 -21.0722 329.279L-53.6527 357.458C-57.5073 360.792 -59.2906 365.929 -58.3306 370.934L-50.2172 413.239C-49.2573 418.245 -45.7001 422.357 -40.8855 424.029L-0.191615 438.155C4.62295 439.826 9.9634 438.802 13.8181 435.468L46.3985 407.289C50.2531 403.955 52.0364 398.818 51.0765 393.813L42.963 351.508C42.0031 346.503 38.4459 342.39 33.6313 340.719L-7.06257 326.593Z" stroke="#D93833"/>
<path d="M75.8521 55.7265C66.3196 52.4175 55.7459 54.4453 48.1139 61.0462L5.70687 97.7242C-1.92509 104.325 -5.45575 114.496 -3.55518 124.406L7.00535 179.471C8.90592 189.381 15.949 197.524 25.4815 200.833L78.4491 219.219C87.9816 222.528 98.5553 220.501 106.187 213.9L148.594 177.222C156.226 170.621 159.757 160.45 157.856 150.54L147.296 95.4752C145.395 85.5653 138.352 77.4221 128.82 74.1131L75.8521 55.7265Z" stroke="#D93833"/>
</svg>
