<svg width="1920" height="425" viewBox="0 0 1920 425" fill="none" xmlns="http://www.w3.org/2000/svg">
<path opacity="0.3" d="M1817.59 -188.107C1815.55 -189.298 1811.97 -189.298 1809.93 -188.107C1808.4 -187.256 1807.89 -185.895 1808.74 -184.705L1690.49 -116.487V-30.237L1661.74 -13.5654V80.1699L1563.06 137.16L1547.75 128.313L1623.8 84.4229V33.0471L1623.46 32.877L1536.86 -17.1378V-34.66L1585.86 -62.8997C1587.9 -62.0491 1590.96 -62.0491 1592.83 -63.2399C1594.88 -64.4308 1594.88 -66.4722 1592.83 -67.663C1590.79 -68.8538 1587.22 -68.8538 1585.18 -67.663C1583.31 -66.6423 1583.14 -64.9411 1584.67 -63.5802L1535.67 -35.3405V-16.4574L1536.01 -16.2872L1622.61 33.7276V83.7424L1565.1 116.915V95.4806L1591.47 80.34C1593.51 81.1906 1596.58 81.1906 1598.45 79.9998C1600.49 78.809 1600.49 76.7675 1598.45 75.5767C1596.41 74.3859 1592.83 74.3859 1590.79 75.5767C1588.92 76.5974 1588.75 78.2986 1590.28 79.6595L1563.91 94.8001V117.596L1546.56 127.633L1525.97 115.725V78.4687L1564.76 56.0131V30.1551L1564.42 29.985L1482.75 -17.1378C1484.29 -18.3287 1484.12 -20.0298 1482.24 -21.2207C1480.2 -22.4115 1476.63 -22.4115 1474.59 -21.2207C1472.55 -20.0298 1472.55 -17.9884 1474.59 -16.7976C1476.46 -15.7769 1479.52 -15.6068 1481.56 -16.4574L1563.57 30.8356V55.1625L1525.97 76.9377V51.2498L1525.63 51.0797L1475.61 22.1595C1477.14 20.9687 1476.97 19.2675 1475.1 18.0767C1473.06 16.8858 1469.48 16.8858 1467.44 18.0767C1465.4 19.2675 1465.4 21.3089 1467.44 22.4998C1469.31 23.5205 1472.38 23.6906 1474.42 22.84L1524.61 51.9303V114.874L1510.15 106.538L1486.33 120.318L1464.72 107.899V77.6181L1464.38 77.448L1407.38 44.6152V16.0353C1408.57 16.0353 1409.77 15.695 1410.62 15.1847C1412.66 13.9939 1412.66 11.9524 1410.62 10.7616C1408.57 9.57077 1405 9.57077 1402.96 10.7616C1400.92 11.9524 1400.92 13.9939 1402.96 15.1847C1403.81 15.695 1405 16.0353 1406.19 16.0353V45.2956L1406.53 45.4657L1463.53 78.2986V107.219L1370.8 53.6314V-3.18813L1421.16 -32.2784H1467.27H1467.44L1546.73 -78.0402C1548.77 -77.1897 1551.83 -77.1896 1553.7 -78.3805C1555.74 -79.5713 1555.74 -81.6127 1553.7 -82.8036C1551.66 -83.9944 1548.09 -83.9944 1546.05 -82.8036C1544.17 -81.7828 1544 -79.9115 1545.54 -78.7207L1467.1 -33.4692H1423.38L1568.84 -117.508C1570.89 -116.657 1573.95 -116.657 1575.82 -117.848C1577.86 -119.039 1577.86 -121.08 1575.82 -122.271C1573.78 -123.462 1570.21 -123.462 1568.16 -122.271C1566.29 -121.25 1566.12 -119.379 1567.65 -118.188L1369.44 -3.69847V54.482L1369.78 54.6521L1484.97 121.168L1461.83 134.608L1265.15 20.9687V-46.7384L1264.81 -46.9086L1197.94 -85.5255C1199.47 -86.7163 1199.3 -88.4175 1197.43 -89.6083C1195.39 -90.7991 1191.82 -90.7991 1189.78 -89.6083C1187.73 -88.4175 1187.73 -86.376 1189.78 -85.1852C1191.65 -84.1645 1194.71 -83.9944 1196.75 -84.845L1263.96 -46.058V21.6492L1264.3 21.8193L1460.81 135.288L1438.69 148.047L1244.05 35.769H1128.02L1055.54 -6.08014V-70.3849C1056.22 -70.555 1057.07 -70.7251 1057.58 -71.0654C1059.62 -72.2562 1059.62 -74.2976 1057.58 -75.4885C1055.54 -76.6793 1051.96 -76.6793 1049.92 -75.4885C1047.88 -74.2976 1047.88 -72.2562 1049.92 -71.0654C1051.11 -70.3849 1052.65 -70.0447 1054.18 -70.2148V-5.39966L1054.52 -5.22954L1127.68 36.9598H1243.71L1407.89 131.716H1374.89L1318.91 99.3933H1275.7H1275.53L1215.64 133.927C1213.6 133.077 1210.53 133.077 1208.66 134.268C1206.62 135.458 1206.62 137.5 1208.66 138.691C1210.7 139.882 1214.28 139.882 1216.32 138.691C1218.19 137.67 1218.36 135.799 1216.83 134.608L1276.04 100.414H1318.57L1374.55 132.737H1409.94L1437.33 148.558L1378.46 182.581L1361.62 172.884V147.537L1319.08 123.04C1320.61 121.849 1320.44 120.148 1318.57 118.957C1316.53 117.766 1312.96 117.766 1310.92 118.957C1308.87 120.148 1308.87 122.189 1310.92 123.38C1312.79 124.401 1315.85 124.571 1317.89 123.72L1360.43 148.217V172.204L1315 146.176H1293.56H1293.39L1267.7 160.976C1265.66 160.126 1262.6 160.126 1260.72 161.316C1258.68 162.507 1258.68 164.549 1260.72 165.74C1262.77 166.93 1266.34 166.93 1268.38 165.74C1270.25 164.719 1270.42 162.847 1268.89 161.657L1293.73 147.367H1314.66L1377.1 183.432L1365.7 190.066L1401.94 210.991L1384.93 220.858H1359.23L1340.86 210.311C1342.39 209.12 1342.05 207.418 1340.18 206.398C1338.14 205.207 1334.56 205.207 1332.52 206.398C1330.48 207.589 1330.48 209.63 1332.52 210.821C1334.39 212.012 1337.46 212.012 1339.5 211.161L1358.72 222.219H1382.54L1339.33 247.226L1237.59 188.535H1164.43H1164.26L1123.08 212.352C1121.04 211.501 1117.98 211.501 1116.11 212.692C1114.07 213.883 1114.07 215.924 1116.11 217.115C1118.15 218.306 1121.72 218.306 1123.76 217.115C1125.63 216.095 1125.8 214.223 1124.27 213.032L1164.77 189.726H1237.42L1315.85 234.978H1282.33L1249.5 216.095C1251.03 214.904 1250.86 213.203 1248.98 212.012C1246.94 210.821 1243.37 210.821 1241.33 212.012C1239.29 213.203 1239.29 215.244 1241.33 216.435C1243.2 217.456 1246.26 217.626 1248.3 216.775L1281.99 236.169H1318.06L1338.31 247.907L1286.59 277.677H1121.38L993.437 203.336C994.968 202.145 994.798 200.444 992.927 199.253C990.885 198.062 987.312 198.062 985.27 199.253C983.229 200.444 983.229 202.485 985.27 203.676C987.142 204.697 990.204 204.867 992.246 204.016L1121.38 278.528H1284.71L1264.3 290.436H1141.97H1141.8L1081.57 325.311C1079.53 324.46 1076.46 324.46 1074.59 325.651C1072.55 326.842 1072.55 328.883 1074.59 330.074C1076.63 331.265 1080.21 331.265 1082.25 330.074C1084.12 329.053 1084.29 327.182 1082.76 325.991L1142.31 291.627H1264.64H1264.81L1403.3 211.671L1418.61 220.518L1272.97 304.556H1166.47H1166.3L1037.67 378.898H859.368L825 358.994V360.355L859.198 380.089H1038.01H1038.18L1119 333.476V361.035L1065.75 391.827C1063.7 390.976 1060.64 390.976 1058.77 392.167C1056.73 393.358 1056.73 395.399 1058.77 396.59C1060.81 397.781 1064.38 397.781 1066.43 396.59C1068.3 395.57 1068.47 393.698 1066.94 392.507L1120.19 361.716V332.966H1119.85L1166.81 305.917H1273.31H1273.48L1419.8 221.368L1437.33 231.405L1153.2 395.399V425H1154.39V396.08L1438.52 232.086L1460.13 244.504L1313.64 329.053V344.194L1287.61 359.164V393.868L1237.25 422.959C1235.2 422.108 1232.14 422.108 1230.27 423.299C1229.42 423.809 1229.08 424.32 1228.74 424.83H1239.29C1239.12 424.49 1238.78 423.979 1238.44 423.639L1288.8 394.549V359.845L1313.64 345.555V401.183L1328.27 409.689L1301.9 424.83H1304.28L1329.46 410.37L1354.64 424.83H1357.02L1314.83 400.503V329.734L1461.32 245.185L1481.05 256.583L1377.27 316.294C1375.23 315.444 1372.16 315.444 1370.29 316.635C1368.25 317.825 1368.25 319.867 1370.29 321.058C1372.33 322.248 1375.91 322.248 1377.95 321.058C1379.82 320.037 1379.99 318.336 1378.46 316.975L1482.07 257.093L1501.13 267.981L1377.1 339.601H1343.41C1343.24 339.09 1342.73 338.41 1341.88 338.069C1339.84 336.879 1336.27 336.879 1334.22 338.069C1332.18 339.26 1332.18 341.302 1334.22 342.493C1336.27 343.683 1339.84 343.683 1341.88 342.493C1342.73 341.982 1343.24 341.472 1343.41 340.961H1377.44H1377.61L1502.32 269.001L1509.98 273.424L1515.93 270.022L1545.71 287.204V311.021L1521.21 325.141H1482.75H1482.58L1440.39 349.467C1438.35 348.617 1435.29 348.617 1433.41 349.808C1431.37 350.998 1431.37 353.04 1433.41 354.231C1435.46 355.422 1439.03 355.422 1441.07 354.231C1442.94 353.21 1443.11 351.339 1441.58 350.148L1483.09 326.161H1519.16L1447.03 367.84C1444.98 366.819 1441.92 366.99 1439.88 368.01C1437.84 369.201 1437.84 371.243 1439.88 372.433C1441.92 373.624 1445.49 373.624 1447.54 372.433C1449.41 371.413 1449.58 369.712 1448.22 368.521L1538.22 316.464V328.032L1484.63 358.994V380.769L1441.07 405.947C1439.03 405.096 1435.97 405.096 1434.1 406.287C1432.05 407.478 1432.05 409.519 1434.1 410.71C1436.14 411.901 1439.71 411.901 1441.75 410.71C1443.62 409.689 1443.79 407.818 1442.26 406.627L1485.82 381.45V359.674L1539.41 328.713V315.784L1546.9 311.531V286.183L1517.12 269.001L1536.69 257.774L1597.77 293.158V333.306L1556.25 357.293C1554.21 356.272 1551.15 356.442 1549.11 357.463C1547.07 358.654 1547.07 360.695 1549.11 361.886C1551.15 363.077 1554.72 363.077 1556.76 361.886C1558.64 360.865 1558.81 359.164 1557.45 357.973L1597.77 334.667V367.16L1565.95 385.533V424.83H1567.14V386.213L1597.77 368.521V424.83H1598.96V292.478L1537.88 257.093L1559.83 244.504L1639.79 290.606V400.503L1678.24 422.618V424.83H1679.43V421.938L1640.98 399.823V289.926L1561.02 243.824L1577.35 234.467L1685.22 296.731V390.466L1744.94 424.83H1747.32L1686.41 389.786V296.05L1578.54 233.787L1604.91 218.646L1784.41 322.248V368.861L1846 404.416V403.055L1785.77 368.18V321.568L1684.88 263.217H1764.67L1846 310.17V308.809L1764.67 261.856H1682.5L1606.1 217.796L1636.73 200.103L1702.4 238.04H1807.89L1845.83 259.985V258.624L1837.49 253.861H1845.83V252.67H1835.45L1808.23 237.019H1702.74L1684.37 226.472H1729.29H1729.46L1751.91 213.543H1845.66L1846 213.713V212.352H1754.13L1779.48 197.722C1781.52 198.572 1784.58 198.572 1786.45 197.382C1788.49 196.191 1788.49 194.149 1786.45 192.958C1784.41 191.768 1780.84 191.768 1778.8 192.958C1776.92 193.979 1776.75 195.85 1778.28 197.041L1729.12 225.451H1682.5L1638.09 199.933L1654.42 190.407L1643.88 184.282H1674.5L1714.48 207.419C1712.95 208.609 1713.12 210.311 1714.99 211.501C1717.04 212.692 1720.61 212.692 1722.65 211.501C1724.69 210.311 1724.69 208.269 1722.65 207.078C1720.78 206.058 1717.72 205.887 1715.67 206.738L1674.67 183.092H1641.66L1619.21 170.163L1632.99 162.167H1657.49L1678.92 149.748H1694.92L1731.16 170.673C1729.46 171.864 1729.63 173.565 1731.67 174.756C1733.71 175.947 1737.28 175.947 1739.32 174.756C1741.36 173.565 1741.36 171.523 1739.32 170.333C1737.45 169.312 1734.56 169.142 1732.52 169.992L1695.43 148.558H1678.75L1657.32 160.976H1635.2L1679.26 135.458H1703.08L1752.76 164.038H1846V162.847H1753.1L1703.42 134.268H1678.92H1678.75L1618.01 169.312L1602.02 160.126L1670.59 120.488H1718.91L1758.89 143.454H1845.83V142.263H1759.23L1721.46 120.488H1845.83V118.957H1670.42H1670.25L1600.83 159.105L1582.8 148.728L1678.41 93.4391H1845.83V92.2483H1723.84L1845.83 21.8193V20.4583L1721.46 92.2483H1679.26L1769.95 39.8518V28.2838L1813.33 3.27638C1815.38 4.12697 1818.44 4.12698 1820.31 2.93616C1822.35 1.74532 1822.35 -0.296112 1820.31 -1.48694C1818.27 -2.67776 1814.69 -2.67776 1812.65 -1.48694C1810.78 -0.466232 1810.61 1.23495 1812.14 2.5959L1788.49 16.2054V-15.4366L1845.83 -48.4396V-49.8006L1787.3 -16.1171V16.8859L1768.76 27.6033V39.1714L1677.39 91.9081L1677.73 92.4184L1581.61 147.877L1564.08 137.84L1662.76 80.8504V-12.8849L1845.83 -118.528V-119.889L1691.68 -30.9174V-115.636L1809.76 -183.684L1809.93 -183.514C1811.97 -182.323 1815.55 -182.323 1817.59 -183.514C1819.63 -184.875 1819.63 -186.746 1817.59 -188.107ZM1651.87 189.896L1510.15 271.723L1368.42 189.896L1510.15 108.069L1651.87 189.896Z" fill="#C6C6C6"/>
<g opacity="0.6">
<path opacity="0.9" d="M1956.01 299.768V282.612L1951.33 279.882C1950.16 288.07 1940.42 293.529 1932.23 294.699L1877.64 326.672L1853.85 335.25L1777.82 295.869L1779.77 294.699C1773.14 291.58 1769.63 284.561 1766.12 278.323L1761.05 281.442L1757.94 282.222V299.768C1757.94 303.277 1760.27 306.396 1764.56 309.126L1840.99 353.186C1849.96 358.255 1864.38 358.255 1873.35 353.186L1949.77 309.126C1954.06 306.396 1956.4 303.277 1956.4 299.768C1956.01 300.158 1956.01 300.158 1956.01 299.768Z" fill="#EAEAEA"/>
<path opacity="0.9" d="M1932.62 294.699L1878.03 326.672L1857.37 334.08V357.475C1863.21 357.475 1869.06 356.305 1873.74 353.576L1950.16 309.516C1954.45 306.786 1956.79 303.667 1956.79 300.158V299.768V282.611L1952.5 280.272H1952.11C1949.77 288.07 1940.42 293.529 1932.62 294.699Z" fill="#D5D5D5"/>
<g opacity="0.9">
<path opacity="0.9" d="M1840.6 336.03L1764.17 291.97C1755.21 286.901 1755.21 278.323 1764.17 273.254L1840.6 229.193C1849.57 224.124 1863.99 224.124 1872.96 229.193L1949.38 273.254C1958.35 278.323 1958.35 286.901 1949.38 291.97L1872.96 336.03C1864.38 341.099 1849.57 341.099 1840.6 336.03Z" fill="#E4E4E4"/>
</g>
</g>
<path d="M1856.97 272.084C1851.9 272.084 1846.45 270.914 1842.55 268.575L1766.12 224.515C1762.22 222.175 1759.88 219.056 1759.88 215.937C1759.88 212.817 1762.22 209.698 1766.12 207.358L1842.55 163.298C1850.34 158.619 1863.21 158.619 1871.4 163.298L1947.82 207.358C1951.72 209.698 1954.06 212.817 1954.06 215.937C1954.06 219.446 1951.72 222.175 1947.82 224.515L1871.4 268.575C1867.5 270.914 1862.04 272.084 1856.97 272.084ZM1856.97 160.959C1851.9 160.959 1847.23 162.128 1843.33 164.078L1766.9 208.138C1763.39 210.088 1761.44 212.817 1761.44 215.547C1761.44 218.276 1763.39 221.005 1766.9 222.955L1843.33 267.015C1850.73 271.304 1863.21 271.304 1870.62 267.015L1947.04 222.955C1950.55 221.005 1952.5 218.276 1952.5 215.547C1952.5 212.817 1950.55 210.088 1947.04 208.138L1870.62 164.078C1866.72 162.128 1862.04 160.959 1856.97 160.959Z" fill="#BABABA"/>
<path opacity="0.1" d="M1956.01 198.78V172.656L1951.33 169.927C1950.16 178.115 1940.42 183.574 1932.23 184.743L1877.64 216.716L1853.85 225.294L1777.82 185.913L1779.77 184.743C1773.14 181.624 1769.63 174.606 1766.12 168.367L1761.05 171.486L1757.94 172.266V198.78C1757.94 202.29 1760.27 205.409 1764.56 208.138L1840.99 252.199C1849.96 257.267 1864.38 257.267 1873.35 252.199L1949.77 208.138C1954.06 205.409 1956.4 202.29 1956.4 198.78C1956.01 199.17 1956.01 199.17 1956.01 198.78Z" fill="#AAAAAA"/>
<path d="M1956.01 175.776V158.619L1951.33 155.89C1950.16 164.078 1940.42 169.537 1932.23 170.707L1877.64 202.68L1853.85 211.258L1777.82 171.876L1779.77 170.707C1773.14 167.587 1769.63 160.569 1766.12 154.33L1761.05 157.45L1757.94 158.229V175.776C1757.94 179.285 1760.27 182.404 1764.56 185.134L1840.99 229.194C1849.96 234.263 1864.38 234.263 1873.35 229.194L1949.77 185.134C1954.06 182.404 1956.4 179.285 1956.4 175.776C1956.01 175.776 1956.01 175.776 1956.01 175.776Z" fill="#E1E1E1"/>
<path opacity="0.3" d="M1932.62 170.316L1878.03 202.289L1857.37 209.698V233.093C1863.21 233.093 1869.06 231.923 1873.74 229.194L1950.16 185.133C1954.45 182.404 1956.79 179.285 1956.79 175.775V175.385V158.229L1952.5 155.89H1952.11C1949.77 164.078 1940.42 169.147 1932.62 170.316Z" fill="#D3D3D3"/>
<path d="M1840.6 211.648L1764.17 167.587C1755.21 162.518 1755.21 153.94 1764.17 148.871L1840.6 104.811C1849.57 99.7421 1863.99 99.7421 1872.96 104.811L1949.38 148.871C1958.35 153.94 1958.35 162.518 1949.38 167.587L1872.96 211.648C1864.38 216.716 1849.57 216.716 1840.6 211.648Z" fill="white"/>
<path d="M1856.98 203.849C1852.3 203.849 1847.62 202.679 1844.11 200.73L1784.45 166.417C1780.94 164.467 1778.99 161.348 1778.99 158.619C1778.99 155.499 1780.94 152.77 1784.45 150.82L1844.11 116.508C1851.13 112.219 1862.82 112.219 1870.23 116.508L1929.89 150.82C1933.4 152.77 1935.35 155.889 1935.35 158.619C1935.35 161.738 1933.4 164.467 1929.89 166.417L1870.23 200.73C1866.33 202.679 1861.65 203.849 1856.98 203.849ZM1844.5 199.56C1851.13 203.459 1862.43 203.459 1869.06 199.56L1928.72 165.247C1931.84 163.298 1933.79 160.958 1933.79 158.619C1933.79 156.279 1932.23 153.55 1928.72 151.99L1869.06 117.678C1862.43 113.779 1851.13 113.779 1844.5 117.678L1784.84 151.99C1781.72 153.94 1779.77 156.279 1779.77 158.619C1779.77 160.958 1781.33 163.688 1784.84 165.247L1844.5 199.56Z" fill="#E0E0E0"/>
<path d="M1949.38 167.588L1872.96 211.648C1863.99 216.717 1849.57 216.717 1840.6 211.648L1764.17 167.588C1760.27 165.248 1757.94 162.519 1757.55 159.399C1757.16 163.299 1759.11 166.808 1764.17 169.927L1840.6 213.987C1849.57 219.056 1863.99 219.056 1872.96 213.987L1949.38 169.927C1954.45 167.198 1956.4 163.299 1956.01 159.399C1955.62 162.519 1953.67 165.248 1949.38 167.588Z" fill="white"/>
<g opacity="0.9">
<path opacity="0.2" d="M1784.04 311.801V292.011L1778.64 288.863C1777.3 298.308 1766.05 304.604 1756.61 305.954L1693.64 342.834L1666.2 352.729L1578.5 307.303L1580.75 305.954C1573.1 302.356 1569.06 294.26 1565.01 287.064L1559.16 290.662L1555.56 291.561V311.801C1555.56 315.849 1558.26 319.447 1563.21 322.595L1651.36 373.418C1661.71 379.265 1678.35 379.265 1688.69 373.418L1776.85 322.595C1781.79 319.447 1784.49 315.849 1784.49 311.801C1784.04 312.25 1784.04 312.25 1784.04 311.801Z" fill="#D8D8D8"/>
<path opacity="0.2" d="M1756.61 305.954L1693.64 342.834L1669.8 351.38V378.366C1676.55 378.366 1683.3 377.016 1688.69 373.868L1776.85 323.045C1781.79 319.897 1784.49 316.298 1784.49 312.251V311.801V292.011L1779.55 289.313H1779.1C1776.85 298.308 1765.6 304.605 1756.61 305.954Z" fill="#CBCBCB"/>
<g opacity="0.3">
<path opacity="0.3" d="M1650.91 353.629L1562.76 302.806C1552.41 296.959 1552.41 287.065 1562.76 281.218L1650.91 230.394C1661.26 224.548 1677.9 224.548 1688.24 230.394L1776.4 281.218C1786.74 287.065 1786.74 296.959 1776.4 302.806L1688.24 353.629C1677.9 359.476 1661.26 359.476 1650.91 353.629Z" fill="#C1C1C1"/>
</g>
<g opacity="0.7">
<path opacity="0.3" d="M1650.91 353.629L1562.76 302.806C1552.41 296.959 1552.41 287.065 1562.76 281.218L1650.91 230.394C1661.26 224.548 1677.9 224.548 1688.24 230.394L1776.4 281.218C1786.74 287.065 1786.74 296.959 1776.4 302.806L1688.24 353.629C1677.9 359.476 1661.26 359.476 1650.91 353.629Z" fill="#E7E7E7"/>
</g>
</g>
<g opacity="0.6">
<path opacity="0.9" d="M197.626 297.828V279.802L192.71 276.934C191.481 285.538 181.239 291.273 172.636 292.502L115.281 326.095L90.291 335.108L10.4042 293.731L12.4526 292.502C5.4881 289.225 1.80102 281.85 -1.88605 275.296L-7.21178 278.573L-10.4893 279.392V297.828C-10.4893 301.515 -8.03116 304.792 -3.52473 307.66L76.7716 353.953C86.1942 359.279 101.352 359.279 110.775 353.953L191.071 307.66C195.577 304.792 198.036 301.515 198.036 297.828C197.626 298.237 197.626 298.237 197.626 297.828Z" fill="#EAEAEA"/>
<path opacity="0.9" d="M172.637 292.502L115.283 326.096L93.5698 333.879V358.46C99.715 358.46 105.86 357.231 110.776 354.363L191.072 308.07C195.579 305.202 198.037 301.925 198.037 298.238V297.828V279.802L193.53 277.344H193.121C191.072 285.538 180.831 291.273 172.637 292.502Z" fill="#D5D5D5"/>
<g opacity="0.3">
<path opacity="0.3" d="M76.3633 335.928L-3.9331 289.635C-13.3556 284.309 -13.3556 275.296 -3.9331 269.97L76.3633 223.677C85.7858 218.351 100.944 218.351 110.366 223.677L190.663 269.97C200.085 275.296 200.085 284.309 190.663 289.635L110.366 335.928C100.944 341.254 85.7858 341.254 76.3633 335.928Z" fill="url(#paint0_linear)"/>
</g>
<g opacity="0.3">
<path opacity="0.3" d="M76.3633 335.928L-3.9331 289.635C-13.3556 284.309 -13.3556 275.296 -3.9331 269.97L76.3633 223.677C85.7858 218.351 100.944 218.351 110.366 223.677L190.663 269.97C200.085 275.296 200.085 284.309 190.663 289.635L110.366 335.928C100.944 341.254 85.7858 341.254 76.3633 335.928Z" fill="#E3E3E3"/>
</g>
</g>
<path d="M93.1628 277.345C87.837 277.345 82.1016 276.116 78.0049 273.658L-2.29149 227.365C-6.38824 224.906 -8.84619 221.629 -8.84619 218.352C-8.84619 215.074 -6.38824 211.797 -2.29149 209.339L78.0049 163.045C86.1984 158.129 99.7176 158.129 108.321 163.045L188.617 209.339C192.714 211.797 195.172 215.074 195.172 218.352C195.172 222.039 192.714 224.906 188.617 227.365L108.321 273.658C104.224 276.116 98.8982 277.345 93.1628 277.345ZM78.8243 272.429C86.6081 276.935 99.7176 276.935 107.501 272.429L187.798 226.135C191.485 224.087 193.533 221.219 193.533 218.352C193.533 215.484 191.485 212.616 187.798 210.568L107.501 164.274C99.7176 159.768 86.6081 159.768 78.8243 164.274L-1.47209 210.568C-5.15916 212.616 -7.20752 215.484 -7.20752 218.352C-7.20752 221.219 -5.15916 224.087 -1.47209 226.135L78.8243 272.429Z" fill="#CBCBCB"/>
<path opacity="0.1" d="M197.627 200.735V173.287L192.711 170.419C191.482 179.022 181.24 184.758 172.637 185.987L115.283 219.58L90.2925 228.593L10.4057 187.216L12.454 185.987C5.48956 182.71 1.80249 175.335 -1.88459 168.781L-7.21032 172.058L-10.4878 172.877V200.735C-10.4878 204.422 -8.02969 207.7 -3.52326 210.567L76.7731 256.861C86.1956 262.186 101.354 262.186 110.776 256.861L191.072 210.567C195.579 207.7 198.037 204.422 198.037 200.735C197.627 200.735 197.627 200.735 197.627 200.735Z" fill="#B7B7B7"/>
<path d="M197.629 176.154V158.129L192.714 155.261C191.485 163.864 181.243 169.6 172.639 170.829L115.285 204.422L90.2948 213.435L10.408 172.058L12.4564 170.829C5.49191 167.551 1.80484 160.177 -1.88224 153.622L-7.61767 156.9L-10.895 157.719V176.154C-10.895 179.842 -8.43704 183.119 -3.93062 185.987L76.3657 232.28C85.7883 237.606 100.946 237.606 110.369 232.28L190.665 185.987C195.172 183.119 197.629 179.842 197.629 176.154C197.629 176.564 197.629 176.154 197.629 176.154Z" fill="#CFCFCF"/>
<path opacity="0.3" d="M172.639 170.42L115.284 204.013L93.5713 211.797V236.378C99.7164 236.378 105.862 235.149 110.778 232.281L191.074 185.988C195.58 183.12 198.038 179.843 198.038 176.155V175.746V157.72L193.532 155.262H193.122C191.074 163.865 180.832 169.601 172.639 170.42Z" fill="#AAAAAA"/>
<path d="M76.3662 214.255L-3.93017 167.961C-13.3527 162.636 -13.3527 153.623 -3.93017 148.297L76.3662 102.004C85.7887 96.6778 100.947 96.6778 110.369 102.004L190.666 148.297C200.088 153.623 200.088 162.636 190.666 167.961L110.369 214.255C100.947 219.58 85.7887 219.58 76.3662 214.255Z" fill="white"/>
<path d="M190.663 167.962L110.367 214.255C100.944 219.581 85.7863 219.581 76.3638 214.255L-3.9326 167.962C-8.02936 165.504 -10.4873 162.636 -10.897 159.358C-11.3067 163.455 -9.25838 167.142 -3.9326 170.42L76.3638 216.713C85.7863 222.039 100.944 222.039 110.367 216.713L190.663 170.42C195.989 167.552 198.037 163.455 197.628 159.358C197.218 162.226 194.76 165.504 190.663 167.962Z" fill="white"/>
<path d="M240.418 378.511C236.157 378.511 231.569 377.527 228.291 375.561L164.049 338.523C160.771 336.557 158.805 333.935 158.805 331.312C158.805 328.363 160.771 326.068 164.049 324.102L228.291 287.064C234.846 283.131 245.662 283.131 252.546 287.064L316.787 324.102C320.065 326.068 322.032 328.69 322.032 331.312C322.032 334.262 320.065 336.557 316.787 338.523L252.546 375.561C248.94 377.855 244.679 378.511 240.418 378.511ZM228.619 374.905C234.846 378.511 245.335 378.511 251.562 374.905L315.804 337.868C318.754 336.229 320.393 333.935 320.393 331.64C320.393 329.346 318.754 327.052 315.804 325.413L251.562 288.375C245.335 284.77 234.846 284.77 228.619 288.375L164.705 325.085C161.755 326.724 160.116 329.018 160.116 331.312C160.116 333.607 161.755 335.901 164.705 337.54L228.619 374.905Z" fill="#DADADA"/>
<path opacity="0.4" d="M323.671 317.218V295.258L319.738 292.964C318.754 299.847 310.56 304.435 303.677 305.419L257.79 332.295L237.796 339.506L173.882 306.402L175.521 305.419C169.949 302.797 166.999 296.897 164.049 291.653L159.788 294.275L157.166 294.93V317.218C157.166 320.168 159.133 322.79 162.738 325.085L226.98 362.122C234.518 366.383 246.646 366.383 254.185 362.122L318.426 325.085C322.032 322.79 323.998 320.168 323.998 317.218C323.671 317.546 323.671 317.218 323.671 317.218Z" fill="#ECECEC"/>
<path d="M323.671 297.553V283.131L319.738 280.837C318.754 287.72 310.56 292.308 303.677 293.292L257.79 320.168L237.796 327.379L173.882 294.275L175.521 293.292C169.949 290.67 166.999 284.77 164.049 279.526L159.788 282.148L157.166 282.803V297.553C157.166 300.503 159.133 303.125 162.738 305.419L226.98 342.456C234.518 346.717 246.646 346.717 254.185 342.456L318.426 305.419C322.032 303.125 323.998 300.503 323.998 297.553C323.671 297.88 323.671 297.88 323.671 297.553Z" fill="#E6E6E6"/>
<path opacity="0.3" d="M303.679 293.292L257.791 320.169L240.42 326.396V346.062C245.336 346.062 250.253 345.079 254.186 342.784L318.428 305.747C322.033 303.453 324 300.83 324 297.881V297.553V283.131L320.394 281.165H320.067C318.428 287.72 310.234 292.309 303.679 293.292Z" fill="#ADADAD"/>
<path d="M226.652 328.035L162.41 290.997C154.872 286.736 154.872 279.526 162.41 275.265L226.652 238.227C234.191 233.966 246.318 233.966 253.857 238.227L318.099 275.265C325.637 279.526 325.637 286.736 318.099 290.997L253.857 328.035C246.318 332.296 234.191 332.296 226.652 328.035Z" fill="#F4F4F4"/>
<path d="M240.42 321.479C236.487 321.479 232.554 320.496 229.604 318.857L179.456 290.013C176.506 288.375 174.867 285.752 174.867 283.458C174.867 280.836 176.506 278.542 179.456 276.903L229.604 248.06C235.504 244.454 245.337 244.454 251.564 248.06L301.712 276.903C304.662 278.542 306.301 281.164 306.301 283.458C306.301 286.08 304.662 288.375 301.712 290.013L251.564 318.857C248.286 320.496 244.353 321.479 240.42 321.479ZM240.42 246.093C236.815 246.093 232.882 247.076 229.932 248.715L179.784 277.558C177.162 279.197 175.523 281.164 175.523 283.13C175.523 285.097 176.834 287.391 179.784 288.702L229.932 317.546C235.504 320.823 245.009 320.823 250.581 317.546L300.729 288.702C303.351 287.064 304.99 285.097 304.99 283.13C304.99 281.164 303.679 278.869 300.729 277.558L250.581 248.715C247.631 246.748 244.026 246.093 240.42 246.093Z" fill="#D3D3D3"/>
<path d="M318.099 290.997L253.857 328.035C246.319 332.296 234.191 332.296 226.653 328.035L162.411 290.997C159.133 289.031 157.167 286.736 156.839 284.114C156.511 287.392 158.15 290.342 162.411 292.964L226.653 330.001C234.191 334.262 246.319 334.262 253.857 330.001L318.099 292.964C322.36 290.67 323.999 287.392 323.671 284.114C323.343 286.736 321.377 289.031 318.099 290.997Z" fill="white"/>
<defs>
<linearGradient id="paint0_linear" x1="-10.9177" y1="279.768" x2="197.603" y2="279.768" gradientUnits="userSpaceOnUse">
<stop stop-color="#E9E9FD"/>
<stop offset="0.3601" stop-color="#D3D2F9"/>
<stop offset="0.7062" stop-color="#C5C4F7"/>
<stop offset="1" stop-color="#C0BFF6"/>
</linearGradient>
</defs>
</svg>
