<svg width="74" height="74" viewBox="20 15 35 35" fill="none" xmlns="http://www.w3.org/2000/svg">
<g filter="url(#filter0_d)">
<circle cx="37" cy="32" r="16.5" stroke="#D93833"/>
</g>
<path d="M44 33.2758V38.4983H40.9993V33.6256C40.9993 32.4015 40.5653 31.5661 39.4792 31.5661C38.6501 31.5661 38.1567 32.1291 37.9396 32.6737C37.8604 32.8684 37.84 33.1394 37.84 33.4119V38.4983H34.8384C34.8384 38.4983 34.8788 30.2455 34.8384 29.3905H37.8398V30.6815C37.8337 30.6911 37.8258 30.7015 37.82 30.7109H37.8398V30.6815C38.2385 30.0618 38.9507 29.1765 40.5447 29.1765C42.5195 29.1765 44 30.4782 44 33.2758ZM31.6985 25C30.6717 25 30 25.6796 30 26.5733C30 27.4476 30.6522 28.1478 31.6587 28.1478H31.6787C32.7255 28.1478 33.3765 27.4477 33.3765 26.5733C33.3567 25.6796 32.7255 25 31.6985 25ZM30.1783 38.4983H33.1788V29.3905H30.1783V38.4983Z" fill="#D93833"/>
<defs>
<filter id="filter0_d" x="0" y="0" width="74" height="74" filterUnits="userSpaceOnUse" color-interpolation-filters="sRGB">
<feFlood flood-opacity="0" result="BackgroundImageFix"/>
<feColorMatrix in="SourceAlpha" type="matrix" values="0 0 0 0 0 0 0 0 0 0 0 0 0 0 0 0 0 0 127 0"/>
<feOffset dy="5"/>
<feGaussianBlur stdDeviation="10"/>
<feColorMatrix type="matrix" values="0 0 0 0 0.85098 0 0 0 0 0.219608 0 0 0 0 0.2 0 0 0 0.35 0"/>
<feBlend mode="normal" in2="BackgroundImageFix" result="effect1_dropShadow"/>
<feBlend mode="normal" in="SourceGraphic" in2="effect1_dropShadow" result="shape"/>
</filter>
</defs>
</svg>
