<svg width="99" height="90" viewBox="0 0 99 90" fill="none" xmlns="http://www.w3.org/2000/svg">
<path d="M14.2622 6.72904C16.1111 5.66128 18.3889 5.66128 20.2378 6.72904L31.5122 13.2403C33.3611 14.3081 34.5 16.2814 34.5 18.4169V31.4395C34.5 33.575 33.3611 35.5483 31.5122 36.6161L20.2378 43.1274C18.3889 44.1952 16.1111 44.1952 14.2622 43.1274L2.98779 36.6161C1.13894 35.5483 0 33.575 0 31.4395V18.4169C0 16.2814 1.13894 14.3081 2.98779 13.2403L14.2622 6.72904Z" fill="#FFD7D6"/>
<path opacity="0.5" fill-rule="evenodd" clip-rule="evenodd" d="M91.1852 18.1355L64.4744 2.71404C60.3862 0.353722 55.3494 0.353723 51.2612 2.71404L24.5504 18.1355C20.4622 20.4958 17.9438 24.8579 17.9438 29.5785V60.4215C17.9438 65.1421 20.4622 69.5042 24.5504 71.8645L51.2612 87.286C55.3494 89.6463 60.3863 89.6463 64.4744 87.286L91.1852 71.8645C95.2734 69.5042 97.7918 65.1421 97.7918 60.4215V29.5785C97.7918 24.8579 95.2734 20.4958 91.1852 18.1355ZM64.9463 1.89668C60.5661 -0.632228 55.1695 -0.632227 50.7893 1.89668L24.0785 17.3182C19.6983 19.8471 17 24.5207 17 29.5785V60.4215C17 65.4793 19.6983 70.1529 24.0785 72.6818L50.7893 88.1033C55.1695 90.6322 60.5661 90.6322 64.9463 88.1033L91.6571 72.6818C96.0373 70.1529 98.7356 65.4793 98.7356 60.4215V29.5785C98.7356 24.5207 96.0373 19.8471 91.6571 17.3182L64.9463 1.89668Z" fill="#D93833"/>
<g clip-path="url(#clip0)">
<path d="M76.4816 26.3927H39.5184C38.6811 26.3927 38 27.0738 38 27.9111V55.9285C38 56.7657 38.6811 57.4469 39.5184 57.4469H53.4594V62.3308H47.4391C47.0866 62.3308 46.8008 62.6166 46.8008 62.9691C46.8008 63.3216 47.0866 63.6074 47.4391 63.6074H68.5609C68.9135 63.6074 69.1992 63.3216 69.1992 62.9691C69.1992 62.6166 68.9135 62.3308 68.5609 62.3308H62.5407V57.4468H76.4817C77.319 57.4468 78.0001 56.7657 78.0001 55.9284V27.9111C78 27.0738 77.3189 26.3927 76.4816 26.3927ZM61.2641 62.3307H54.736V57.4468H61.2641V62.3307ZM76.7234 55.9284C76.7234 56.0595 76.6127 56.1702 76.4816 56.1702H39.5184C39.3873 56.1702 39.2766 56.0595 39.2766 55.9284V27.9111C39.2766 27.78 39.3873 27.6693 39.5184 27.6693H76.4816C76.6127 27.6693 76.7234 27.78 76.7234 27.9111V55.9284Z" fill="#D93833"/>
<path d="M74.7214 50.9768H41.2784C40.9259 50.9768 40.6401 51.2626 40.6401 51.6151C40.6401 51.9676 40.9259 52.2534 41.2784 52.2534H74.7214C75.074 52.2534 75.3597 51.9676 75.3597 51.6151C75.3597 51.2626 75.0739 50.9768 74.7214 50.9768Z" fill="#D93833"/>
<path d="M47.3614 48.8491H50.7657C51.1182 48.8491 51.404 48.5633 51.404 48.2108V38.9506C51.404 38.598 51.1182 38.3123 50.7657 38.3123H47.3614C47.0089 38.3123 46.7231 38.598 46.7231 38.9506V48.2108C46.7231 48.5633 47.0089 48.8491 47.3614 48.8491ZM47.9997 39.5889H50.1274V47.5725H47.9997V39.5889Z" fill="#D93833"/>
<path d="M53.319 48.8492H56.7232C57.0757 48.8492 57.3615 48.5634 57.3615 48.2109V35.9308C57.3615 35.5783 57.0757 35.2925 56.7232 35.2925H53.319C52.9665 35.2925 52.6807 35.5783 52.6807 35.9308V48.2109C52.6807 48.5634 52.9665 48.8492 53.319 48.8492ZM53.9573 36.5691H56.0849V47.5726H53.9573V36.5691Z" fill="#D93833"/>
<path d="M59.2765 48.8491H62.6807C63.0333 48.8491 63.319 48.5634 63.319 48.2108V33.0754C63.319 32.7229 63.0333 32.4371 62.6807 32.4371H59.2765C58.9239 32.4371 58.6382 32.7229 58.6382 33.0754V48.2108C58.6382 48.5634 58.9239 48.8491 59.2765 48.8491ZM59.9148 33.7137H62.0424V47.5725H59.9148V33.7137Z" fill="#D93833"/>
<path d="M65.234 48.8491H68.6383C68.9909 48.8491 69.2766 48.5633 69.2766 48.2108V41.8882C69.2766 41.5357 68.9909 41.2499 68.6383 41.2499H65.234C64.8814 41.2499 64.5957 41.5357 64.5957 41.8882V48.2108C64.5957 48.5633 64.8814 48.8491 65.234 48.8491ZM65.8723 42.5265H68V47.5725H65.8723V42.5265Z" fill="#D93833"/>
</g>
<defs>
<clipPath id="clip0">
<rect width="40" height="40" fill="white" transform="translate(38 25)"/>
</clipPath>
</defs>
</svg>
