<svg width="99" height="90" viewBox="0 0 99 90" fill="none" xmlns="http://www.w3.org/2000/svg">
<path d="M14.2622 6.72904C16.1111 5.66128 18.3889 5.66128 20.2378 6.72904L31.5122 13.2403C33.3611 14.3081 34.5 16.2814 34.5 18.4169V31.4395C34.5 33.575 33.3611 35.5483 31.5122 36.6161L20.2378 43.1274C18.3889 44.1952 16.1111 44.1952 14.2622 43.1274L2.98779 36.6161C1.13894 35.5483 0 33.575 0 31.4395V18.4169C0 16.2814 1.13894 14.3081 2.98779 13.2403L14.2622 6.72904Z" fill="#FFD7D6"/>
<path opacity="0.5" fill-rule="evenodd" clip-rule="evenodd" d="M91.1852 18.1355L64.4744 2.71404C60.3862 0.353722 55.3494 0.353723 51.2612 2.71404L24.5504 18.1355C20.4622 20.4958 17.9438 24.8579 17.9438 29.5785V60.4215C17.9438 65.1421 20.4622 69.5042 24.5504 71.8645L51.2612 87.286C55.3494 89.6463 60.3863 89.6463 64.4744 87.286L91.1852 71.8645C95.2734 69.5042 97.7918 65.1421 97.7918 60.4215V29.5785C97.7918 24.8579 95.2734 20.4958 91.1852 18.1355ZM64.9463 1.89668C60.5661 -0.632228 55.1695 -0.632227 50.7893 1.89668L24.0785 17.3182C19.6983 19.8471 17 24.5207 17 29.5785V60.4215C17 65.4793 19.6983 70.1529 24.0785 72.6818L50.7893 88.1033C55.1695 90.6322 60.5661 90.6322 64.9463 88.1033L91.6571 72.6818C96.0373 70.1529 98.7356 65.4793 98.7356 60.4215V29.5785C98.7356 24.5207 96.0373 19.8471 91.6571 17.3182L64.9463 1.89668Z" fill="#D93833"/>
<g clip-path="url(#clip0)">
<path d="M64.759 35.4927C64.2148 34.1236 63.3 32.9434 62.1138 32.0798C60.9601 31.2401 59.6 30.7321 58.1804 30.6111C57.814 30.58 57.4935 30.8509 57.4624 31.2162C57.4313 31.5817 57.7022 31.9031 58.0676 31.9342C60.5243 32.1437 62.6154 33.6951 63.525 35.9832C63.6285 36.2435 63.8781 36.4021 64.1421 36.4021C64.2237 36.4021 64.3068 36.3869 64.3872 36.3549C64.728 36.2196 64.8945 35.8335 64.759 35.4927Z" fill="#D93833"/>
<path d="M55.5359 31.5016C55.4024 31.16 55.0173 30.9911 54.6758 31.1245L54.6504 31.1345C54.3095 31.2697 54.1427 31.6557 54.2779 31.9965C54.3812 32.2571 54.6311 32.416 54.8953 32.416C54.9768 32.416 55.0596 32.4009 55.1399 32.369L55.1588 32.3616C55.5004 32.2282 55.6693 31.8432 55.5359 31.5016Z" fill="#D93833"/>
<path d="M58.4592 38.6877C58.3357 38.5642 58.1644 38.4932 57.9897 38.4932C57.8151 38.4932 57.6438 38.5642 57.5203 38.6877C57.3967 38.8112 57.3257 38.9826 57.3257 39.1572C57.3257 39.3319 57.3967 39.5032 57.5203 39.6267C57.6438 39.7502 57.8151 39.8213 57.9897 39.8213C58.1644 39.8213 58.3357 39.7502 58.4592 39.6267C58.5828 39.5032 58.6538 39.3319 58.6538 39.1572C58.6538 38.9826 58.5828 38.8112 58.4592 38.6877Z" fill="#D93833"/>
<path d="M72.7423 53.8998C72.3613 53.8998 72.0023 53.9951 71.6871 54.1625L69.9163 52.3916V48.9303H70.2194C72.8544 48.9303 74.9979 46.7879 74.9979 44.1544C74.9979 42.3816 74.0338 40.787 72.5014 39.9577C72.5204 39.785 72.53 39.6117 72.53 39.4393C72.53 36.8075 70.3892 34.6662 67.7567 34.6634C66.9723 32.793 65.688 31.1896 64.0199 30.0048C62.1762 28.695 60.0023 28.0028 57.7334 28.0028C55.2172 28.0028 52.7641 28.8826 50.8257 30.4803C49.0567 31.9383 47.7886 33.9281 47.2148 36.1289C43.7706 36.23 41 39.0618 41 42.5282C41 45.6054 43.1838 48.1823 46.0837 48.7929V52.3916L44.3129 54.1625C43.9977 53.9951 43.6387 53.8998 43.2577 53.8998C42.0128 53.8998 41 54.9127 41 56.1575C41 57.4024 42.0128 58.4152 43.2577 58.4152C44.5026 58.4152 45.5154 57.4024 45.5154 56.1575C45.5154 55.7761 45.4199 55.4167 45.2522 55.1013L47.2173 53.1362C47.3418 53.0117 47.4118 52.8427 47.4118 52.6666V48.9302H51.4915V55.9772L49.7207 57.748C49.4055 57.5807 49.0465 57.4854 48.6655 57.4854C47.4206 57.4854 46.4078 58.4981 46.4078 59.7431C46.4078 60.988 47.4206 62.0007 48.6655 62.0007C49.9104 62.0007 50.9232 60.988 50.9232 59.7431C50.9232 59.3616 50.8277 59.0022 50.66 58.6868L52.6251 56.7217C52.7496 56.5972 52.8196 56.4283 52.8196 56.2522V48.9302H57.3255V53.9995C56.4037 54.2837 55.7318 55.1435 55.7318 56.1573C55.7318 57.4022 56.7446 58.415 57.9895 58.415C59.2344 58.415 60.2472 57.4022 60.2472 56.1573C60.2472 55.1435 59.5754 54.2837 58.6535 53.9995V48.9302H63.1783V56.2522C63.1783 56.4283 63.2483 56.5972 63.3728 56.7217L65.3379 58.6868C65.1702 59.0022 65.0747 59.3616 65.0747 59.7431C65.0747 60.988 66.0875 62.0007 67.3324 62.0007C68.5773 62.0007 69.5901 60.988 69.5901 59.7431C69.5901 58.4981 68.5773 57.4854 67.3324 57.4854C66.9514 57.4854 66.5924 57.5806 66.2772 57.748L64.5064 55.9772V48.9303H68.5881V52.6667C68.5881 52.8428 68.6581 53.0117 68.7827 53.1362L70.7477 55.1013C70.58 55.4168 70.4846 55.7762 70.4846 56.1576C70.4846 57.4025 71.4973 58.4153 72.7423 58.4153C73.9872 58.4153 74.9999 57.4025 74.9999 56.1576C75 54.9127 73.9872 53.8998 72.7423 53.8998ZM43.2577 57.0872C42.745 57.0872 42.3281 56.6701 42.3281 56.1575C42.3281 55.6449 42.7451 55.2279 43.2577 55.2279C43.7703 55.2279 44.1873 55.6449 44.1873 56.1575C44.1873 56.6701 43.7703 57.0872 43.2577 57.0872ZM48.6655 60.6728C48.1529 60.6728 47.7359 60.2557 47.7359 59.7431C47.7359 59.2305 48.1529 58.8135 48.6655 58.8135C49.1781 58.8135 49.5951 59.2305 49.5951 59.7431C49.5951 60.2557 49.1781 60.6728 48.6655 60.6728ZM67.3325 58.8135C67.8451 58.8135 68.2621 59.2306 68.2621 59.7431C68.2621 60.2558 67.8451 60.6728 67.3325 60.6728C66.8198 60.6728 66.4028 60.2557 66.4028 59.7431C66.4028 59.2305 66.8198 58.8135 67.3325 58.8135ZM58.9192 56.1574C58.9192 56.6701 58.5022 57.087 57.9896 57.087C57.4769 57.087 57.06 56.67 57.06 56.1574C57.06 55.6448 57.477 55.2278 57.9896 55.2278C58.5022 55.2278 58.9192 55.6448 58.9192 56.1574ZM69.2523 44.3379C68.8856 44.3379 68.5883 44.6352 68.5883 45.0019V47.6023H64.5064V47.6022V43.3334C64.5064 42.9666 64.2091 42.6694 63.8424 42.6694C63.4757 42.6694 63.1784 42.9667 63.1784 43.3334V47.6022H58.6536V41.6817C58.6536 41.3149 58.3563 41.0177 57.9896 41.0177C57.6229 41.0177 57.3256 41.315 57.3256 41.6817V47.6022H52.8197V43.3334C52.8197 42.9666 52.5224 42.6694 52.1557 42.6694C51.789 42.6694 51.4917 42.9667 51.4917 43.3334V47.6022H47.4118V45.0018C47.4118 44.635 47.1145 44.3378 46.7478 44.3378C46.381 44.3378 46.0838 44.6351 46.0838 45.0018V47.4267C43.9231 46.8439 42.3281 44.8691 42.3281 42.5281C42.3281 39.7303 44.6059 37.454 47.4057 37.454H47.4058C47.4696 37.454 47.5332 37.456 47.5968 37.4584C47.6278 37.4597 47.66 37.4612 47.694 37.4631C48.8353 37.5277 49.9215 37.9731 50.7792 38.7356C50.9057 38.848 51.0632 38.9033 51.2202 38.9033C51.4033 38.9033 51.5855 38.828 51.7168 38.6805C51.9604 38.4063 51.9357 37.9867 51.6617 37.743C50.7807 36.9599 49.7089 36.4411 48.5642 36.2312C49.7251 32.1926 53.471 29.3309 57.7334 29.3309C61.7173 29.3309 65.317 31.8423 66.6906 35.5802C66.7955 35.8658 67.0814 36.0433 67.3837 36.0116C67.5104 35.9982 67.6341 35.9914 67.7515 35.9914C69.6541 35.9914 71.202 37.5381 71.202 39.4393C71.202 39.692 71.1735 39.9472 71.1171 40.198C71.0459 40.5149 71.2144 40.8368 71.5155 40.9589C72.8243 41.4896 73.67 42.7438 73.67 44.1544C73.67 46.0555 72.1221 47.6023 70.2195 47.6023H69.9164V45.0019C69.9164 44.6352 69.6191 44.3379 69.2523 44.3379ZM72.7423 57.0872C72.2297 57.0872 71.8127 56.6701 71.8127 56.1575C71.8127 55.6449 72.2297 55.2279 72.7423 55.2279C73.2549 55.2279 73.6719 55.6449 73.6719 56.1575C73.6719 56.6701 73.255 57.0872 72.7423 57.0872Z" fill="#D93833"/>
</g>
<defs>
<clipPath id="clip0">
<rect width="34" height="34" fill="white" transform="translate(41 28)"/>
</clipPath>
</defs>
</svg>
