<svg width="99" height="90" viewBox="0 0 99 90" fill="none" xmlns="http://www.w3.org/2000/svg">
<path d="M14.2622 6.72904C16.1111 5.66128 18.3889 5.66128 20.2378 6.72904L31.5122 13.2403C33.3611 14.3081 34.5 16.2814 34.5 18.4169V31.4395C34.5 33.575 33.3611 35.5483 31.5122 36.6161L20.2378 43.1274C18.3889 44.1952 16.1111 44.1952 14.2622 43.1274L2.98779 36.6161C1.13894 35.5483 0 33.575 0 31.4395V18.4169C0 16.2814 1.13894 14.3081 2.98779 13.2403L14.2622 6.72904Z" fill="#FFD7D6"/>
<path opacity="0.5" fill-rule="evenodd" clip-rule="evenodd" d="M91.1852 18.1355L64.4744 2.71404C60.3862 0.353722 55.3494 0.353723 51.2612 2.71404L24.5504 18.1355C20.4622 20.4958 17.9438 24.8579 17.9438 29.5785V60.4215C17.9438 65.1421 20.4622 69.5042 24.5504 71.8645L51.2612 87.286C55.3494 89.6463 60.3863 89.6463 64.4744 87.286L91.1852 71.8645C95.2734 69.5042 97.7918 65.1421 97.7918 60.4215V29.5785C97.7918 24.8579 95.2734 20.4958 91.1852 18.1355ZM64.9463 1.89668C60.5661 -0.632228 55.1695 -0.632227 50.7893 1.89668L24.0785 17.3182C19.6983 19.8471 17 24.5207 17 29.5785V60.4215C17 65.4793 19.6983 70.1529 24.0785 72.6818L50.7893 88.1033C55.1695 90.6322 60.5661 90.6322 64.9463 88.1033L91.6571 72.6818C96.0373 70.1529 98.7356 65.4793 98.7356 60.4215V29.5785C98.7356 24.5207 96.0373 19.8471 91.6571 17.3182L64.9463 1.89668Z" fill="#D93833"/>
<path d="M58.0004 42.3333C57.0274 42.3313 56.195 43.0315 56.03 43.9905C55.8653 44.9495 56.416 45.8873 57.3337 46.2105V54.3333H58.667V46.2105C59.5847 45.8873 60.1354 44.9495 59.9707 43.9905C59.8057 43.0315 58.9733 42.3313 58.0004 42.3333ZM58.0004 44.9999C57.6322 44.9999 57.3337 44.7014 57.3337 44.3333C57.3337 43.9651 57.6322 43.6666 58.0004 43.6666C58.3685 43.6666 58.667 43.9651 58.667 44.3333C58.667 44.7014 58.3685 44.9999 58.0004 44.9999Z" fill="#D93833"/>
<path d="M54.7 41.0332C52.8806 42.8571 52.8806 45.8096 54.7 47.6335L55.6427 46.6908C54.3435 45.3877 54.3435 43.279 55.6427 41.9759L54.7 41.0332Z" fill="#D93833"/>
<path d="M61.3001 41.0332L60.3574 41.9759C61.6566 43.279 61.6566 45.3877 60.3574 46.6908L61.3001 47.6335C63.1195 45.8096 63.1195 42.8571 61.3001 41.0332Z" fill="#D93833"/>
<path d="M53.7576 40.0908L52.8149 39.1481C49.9556 42.0136 49.9556 46.653 52.8149 49.5185L53.7576 48.5758C51.4181 46.2314 51.4181 42.4352 53.7576 40.0908Z" fill="#D93833"/>
<path d="M62.2427 40.0908C64.5822 42.4352 64.5822 46.2314 62.2427 48.5758L63.1854 49.5185C66.0448 46.653 66.0448 42.0136 63.1854 39.1481L62.2427 40.0908Z" fill="#D93833"/>
<path d="M67.3335 25H48.6668C46.8267 25.0023 45.3358 26.4932 45.3335 28.3333V61.6667C45.3358 63.5068 46.8267 64.9977 48.6668 65H67.3335C69.1737 64.9977 70.6646 63.5068 70.6668 61.6667V28.3333C70.6646 26.4932 69.1737 25.0023 67.3335 25ZM53.3335 26.3333H62.6668V27.6667C62.6668 28.0348 62.3683 28.3333 62.0002 28.3333H54.0002C53.632 28.3333 53.3335 28.0348 53.3335 27.6667V26.3333ZM69.3335 61.6667C69.3335 62.7712 68.438 63.6667 67.3335 63.6667H48.6668C47.5623 63.6667 46.6668 62.7712 46.6668 61.6667V28.3333C46.6668 27.2288 47.5623 26.3333 48.6668 26.3333H52.0002V27.6667C52.0002 28.7712 52.8957 29.6667 54.0002 29.6667H62.0002C63.1047 29.6667 64.0002 28.7712 64.0002 27.6667V26.3333H67.3335C68.438 26.3333 69.3335 27.2288 69.3335 28.3333V61.6667Z" fill="#D93833"/>
<path d="M53.3335 32.3334H54.6668V33.6667H53.3335V32.3334Z" fill="#D93833"/>
<path d="M56 32.3334H57.3333V33.6667H56V32.3334Z" fill="#D93833"/>
<path d="M58.6665 32.3334H59.9998V33.6667H58.6665V32.3334Z" fill="#D93833"/>
<path d="M61.3335 32.3334H62.6668V33.6667H61.3335V32.3334Z" fill="#D93833"/>
</svg>
