<svg width="99" height="90" viewBox="0 0 99 90" fill="none" xmlns="http://www.w3.org/2000/svg">
<path d="M14.2622 6.72904C16.1111 5.66128 18.3889 5.66128 20.2378 6.72904L31.5122 13.2403C33.3611 14.3081 34.5 16.2814 34.5 18.4169V31.4395C34.5 33.575 33.3611 35.5483 31.5122 36.6161L20.2378 43.1274C18.3889 44.1952 16.1111 44.1952 14.2622 43.1274L2.98779 36.6161C1.13894 35.5483 0 33.575 0 31.4395V18.4169C0 16.2814 1.13894 14.3081 2.98779 13.2403L14.2622 6.72904Z" fill="#FFD7D6"/>
<path opacity="0.5" fill-rule="evenodd" clip-rule="evenodd" d="M91.1852 18.1355L64.4744 2.71404C60.3862 0.353722 55.3494 0.353723 51.2612 2.71404L24.5504 18.1355C20.4622 20.4958 17.9438 24.8579 17.9438 29.5785V60.4215C17.9438 65.1421 20.4622 69.5042 24.5504 71.8645L51.2612 87.286C55.3494 89.6463 60.3863 89.6463 64.4744 87.286L91.1852 71.8645C95.2734 69.5042 97.7918 65.1421 97.7918 60.4215V29.5785C97.7918 24.8579 95.2734 20.4958 91.1852 18.1355ZM64.9463 1.89668C60.5661 -0.632228 55.1695 -0.632227 50.7893 1.89668L24.0785 17.3182C19.6983 19.8471 17 24.5207 17 29.5785V60.4215C17 65.4793 19.6983 70.1529 24.0785 72.6818L50.7893 88.1033C55.1695 90.6322 60.5661 90.6322 64.9463 88.1033L91.6571 72.6818C96.0373 70.1529 98.7356 65.4793 98.7356 60.4215V29.5785C98.7356 24.5207 96.0373 19.8471 91.6571 17.3182L64.9463 1.89668Z" fill="#D93833"/>
<g clip-path="url(#clip0)">
<path d="M49.5133 34.6353C49.265 33.4829 48.2665 32.6455 47.0882 32.6018C45.9099 32.5578 44.8521 33.3189 44.5188 34.4501C44.1858 35.5813 44.6624 36.794 45.6762 37.3961C46.6901 37.9978 47.9833 37.8355 48.8167 37.0014C49.4376 36.3833 49.7002 35.4912 49.5133 34.6353ZM47.9519 36.1366C47.6299 36.4662 47.1598 36.605 46.7102 36.5033C46.2009 36.3877 45.8031 35.9899 45.6875 35.4806C45.6026 35.0822 45.7008 34.667 45.9553 34.3491C46.2098 34.0311 46.5935 33.8445 47.0005 33.8401C47.0998 33.8401 47.1987 33.851 47.2956 33.8722C47.8049 33.9878 48.2027 34.3852 48.3187 34.8945C48.4203 35.3442 48.2815 35.8142 47.9519 36.1366Z" fill="#D93833"/>
<path d="M62.3081 51.4518C62.6458 51.4518 62.9194 51.1779 62.9194 50.8405V48.1793C62.9194 47.8416 62.6458 47.568 62.3081 47.568C61.9707 47.568 61.6968 47.8416 61.6968 48.1793V50.8405C61.6968 51.1779 61.9707 51.4518 62.3081 51.4518Z" fill="#D93833"/>
<path d="M46.4511 52.0202C47.3066 52.2048 48.1977 51.9424 48.8168 51.3233C49.4356 50.7041 49.6983 49.8131 49.5134 48.9575C49.2391 47.7103 48.0912 46.8538 46.8178 46.9459C45.5443 47.038 44.5312 48.0508 44.4394 49.3242C44.3473 50.5977 45.2039 51.746 46.4511 52.0202ZM46.054 48.5604C46.3033 48.306 46.6445 48.1623 47.0006 48.162C47.0999 48.162 47.1988 48.1729 47.2957 48.1941C47.8053 48.3097 48.2031 48.7075 48.3188 49.2168C48.415 49.6661 48.2771 50.1338 47.952 50.4585C47.6273 50.7836 47.1596 50.9214 46.7103 50.8252C46.201 50.7096 45.8032 50.3115 45.6876 49.8022C45.5859 49.3529 45.7248 48.8832 46.054 48.5608V48.5604Z" fill="#D93833"/>
<path d="M59.6885 51.4518C60.0262 51.4518 60.2998 51.1779 60.2998 50.8405V48.1793C60.2998 47.8416 60.0262 47.568 59.6885 47.568C59.3511 47.568 59.0771 47.8416 59.0771 48.1793V50.8405C59.0771 51.1779 59.3511 51.4518 59.6885 51.4518Z" fill="#D93833"/>
<path d="M64.9277 51.4518C65.2654 51.4518 65.539 51.1779 65.539 50.8405V48.1793C65.539 47.8416 65.2654 47.568 64.9277 47.568C64.5903 47.568 64.3164 47.8416 64.3164 48.1793V50.8405C64.3164 51.1779 64.5903 51.4518 64.9277 51.4518Z" fill="#D93833"/>
<path d="M76.6958 32.2928L75.2627 32.1536C75.099 31.5703 74.8629 31.0095 74.5603 30.4845L75.4711 29.3867C75.6721 29.1448 75.6567 28.7901 75.4353 28.5663L73.6815 26.7944C73.4588 26.5693 73.1009 26.5519 72.8574 26.7538L71.7555 27.6674C71.2295 27.3662 70.669 27.1294 70.0863 26.963L69.9475 25.5415C69.9161 25.2303 69.6517 24.9953 69.3393 25.0001H66.8237C66.5109 24.9953 66.2465 25.2303 66.2152 25.5415L66.0763 26.9677C65.492 27.1304 64.9305 27.3655 64.4044 27.6674L63.3056 26.7555C63.0631 26.5539 62.7069 26.5703 62.4838 26.7927L60.7082 28.5642C60.4845 28.7826 60.4677 29.1367 60.6694 29.3758L60.7437 29.4543H43.0137C41.5543 29.4539 40.3886 30.6636 40.3886 32.1229V38.2524C40.3849 38.9514 40.6595 39.6231 41.1521 40.1188C41.6447 40.6148 42.3147 40.8938 43.0137 40.8942H54.3615V43.7761H43.0137C41.5543 43.7761 40.3886 44.9857 40.3886 46.4451V52.5746C40.3849 53.2736 40.6595 53.9452 41.1521 54.4409C41.6447 54.9369 42.3147 55.216 43.0137 55.2163H54.3615V58.2582C52.9707 58.5028 51.8807 59.59 51.6331 60.9801H43.2999C42.9939 59.8724 41.9162 59.1612 40.7775 59.3154C39.6385 59.4699 38.7891 60.4421 38.7891 61.5914C38.7891 62.7407 39.6385 63.7133 40.7775 63.8675C41.9162 64.0216 42.9939 63.3107 43.2999 62.2027H51.6331C51.9278 63.8228 53.3391 65 54.9854 65C56.632 65 58.0433 63.8228 58.3381 62.2027H66.6713C66.9769 63.3025 68.0477 64.0073 69.1786 63.8531C70.3098 63.6986 71.1527 62.7328 71.1527 61.5914C71.1527 60.45 70.3098 59.4842 69.1786 59.33C68.0477 59.1758 66.9769 59.8806 66.6713 60.9801H58.3381C58.0791 59.5866 56.9807 58.5007 55.5841 58.2582V55.2163H66.9575C68.4168 55.2163 69.6442 54.0339 69.6442 52.5746V46.4451C69.6442 44.9857 68.4168 43.7761 66.9575 43.7761H55.5841V40.8942H61.8596L62.4838 41.5198C62.7066 41.7429 63.0624 41.76 63.3056 41.559L64.4075 40.6462C64.9332 40.9474 65.4937 41.1841 66.0767 41.3509L66.2152 42.7851C66.2455 43.0986 66.5085 43.3384 66.8237 43.3394H69.3386C69.6538 43.3387 69.9171 43.0989 69.9472 42.7851L70.086 41.353C70.6704 41.1892 71.2322 40.9532 71.7582 40.6502L72.8567 41.5607C73.0996 41.762 73.4557 41.7456 73.6788 41.5229L75.4544 39.751C75.6779 39.5279 75.6949 39.1711 75.493 38.9279L74.5808 37.8277C74.8817 37.302 75.1184 36.7426 75.2852 36.1603L76.6961 36.0218C77.0083 35.9907 77.245 35.7267 77.242 35.4128V32.9011C77.245 32.5876 77.0079 32.3235 76.6958 32.2928ZM41.0938 62.6776C40.5046 62.6776 40.0267 62.2 40.0267 61.6105C40.0267 61.0214 40.5046 60.5434 41.0938 60.5434C41.6829 60.5434 42.1608 61.0214 42.1608 61.6105C42.1601 62.1996 41.6829 62.6769 41.0938 62.6776ZM68.8774 60.5434C69.4665 60.5434 69.9444 61.021 69.9444 61.6105C69.9444 62.1996 69.4668 62.6776 68.8774 62.6776C68.2882 62.6776 67.8103 62.2 67.8103 61.6105C67.811 61.0217 68.2882 60.5441 68.8774 60.5434ZM57.1714 61.6105C57.1714 62.8178 56.1927 63.7965 54.9854 63.7965C53.7785 63.7965 52.7998 62.8178 52.7998 61.6105C52.7998 60.4032 53.7785 59.4249 54.9854 59.4249C55.567 59.4184 56.1268 59.6466 56.5382 60.058C56.9493 60.4694 57.1779 61.0289 57.1714 61.6105ZM68.4216 52.5695C68.4216 53.3561 67.784 53.9937 66.9974 53.9937H43.0358C42.2492 53.9937 41.6113 53.3561 41.6113 52.5695V46.4229C41.6113 45.6363 42.2492 44.9987 43.0358 44.9987H66.9974C67.784 44.9987 68.4216 45.6363 68.4216 46.4229V52.5695ZM41.6113 38.2524V32.1229C41.6113 31.3376 42.2284 30.6765 43.0137 30.6765H61.4652C61.2288 31.148 61.032 31.6385 60.8771 32.1424L59.4471 32.2874C59.1346 32.3208 58.8985 32.5869 58.9026 32.9011V35.4128C58.8992 35.726 59.1353 35.9904 59.4471 36.0214L60.8795 36.1603C61.0429 36.7439 61.279 37.3048 61.5815 37.8298L60.6704 38.9248C60.4896 39.1431 60.4838 39.4969 60.6458 39.6715H43.0137C42.6388 39.6715 42.2795 39.5214 42.0162 39.2547C41.7528 38.9882 41.6072 38.6273 41.6113 38.2524ZM76.0193 34.8585L74.7333 34.985C74.4709 35.011 74.2553 35.203 74.1994 35.4606C74.0336 36.2039 73.7351 36.9107 73.3186 37.548C73.1726 37.7724 73.1896 38.0658 73.3609 38.2719L74.1963 39.2789L73.2094 40.2641L72.2014 39.4283C71.994 39.2564 71.6989 39.2403 71.4741 39.3891C70.8406 39.8087 70.1341 40.1055 69.3911 40.2644C69.1305 40.3214 68.9364 40.5397 68.9108 40.8051L68.7842 42.1168H67.3788L67.2515 40.8051C67.2259 40.5401 67.0318 40.3217 66.7712 40.2655C66.0275 40.1007 65.3197 39.8025 64.6825 39.385C64.4583 39.241 64.167 39.2588 63.962 39.4287L62.9539 40.2644L61.967 39.2792L62.8021 38.2719C62.9744 38.0641 62.9901 37.768 62.8407 37.5432C62.4204 36.9111 62.1222 36.2056 61.9616 35.4637C61.9087 35.2051 61.6938 35.0113 61.4314 34.9854L60.1252 34.8578V33.4561L61.4308 33.3292C61.6931 33.3036 61.9087 33.1112 61.9643 32.8533C62.1301 32.1103 62.4282 31.4031 62.8451 30.7662C62.9908 30.5414 62.9737 30.2481 62.8025 30.0424L62.5968 29.7947C62.5589 29.7255 62.5081 29.664 62.447 29.6142L61.9667 29.035L62.9536 28.0498L63.9616 28.8863C64.169 29.0582 64.4645 29.0742 64.6889 28.9255C65.3224 28.5059 66.0289 28.2088 66.7719 28.0498C67.0308 27.999 67.2256 27.7844 67.2522 27.5221L67.3788 26.2227H68.7842L68.9108 27.5217C68.9367 27.7858 69.1319 28.002 69.3918 28.0553C70.1355 28.2187 70.843 28.5161 71.4806 28.9323C71.7047 29.0759 71.9963 29.0579 72.201 28.8873L73.2064 28.0529L74.1772 29.033L73.3397 30.0427C73.1678 30.2505 73.1521 30.5466 73.3015 30.7714C73.7218 31.4035 74.02 32.109 74.1803 32.8513C74.2338 33.1098 74.4494 33.3036 74.7125 33.3295L76.0193 33.4561V34.8585Z" fill="#D93833"/>
<path d="M68.0717 29.0516C65.2529 29.0554 62.9708 31.3427 62.9731 34.1615C62.9755 36.9803 65.2618 39.2635 68.0806 39.2624C70.8994 39.2611 73.1839 36.9758 73.1839 34.157C73.1788 31.3369 70.8919 29.053 68.0717 29.0516ZM68.0717 38.0398C65.9284 38.0361 64.1934 36.2959 64.1958 34.1526C64.1982 32.0089 65.9372 30.2729 68.0806 30.2743C70.2243 30.2753 71.9613 32.0134 71.9613 34.157C71.9569 36.3021 70.2171 38.0391 68.0717 38.0398Z" fill="#D93833"/>
</g>
<defs>
<clipPath id="clip0">
<rect width="40" height="40" fill="white" transform="translate(38 25)"/>
</clipPath>
</defs>
</svg>
