<svg width="65" height="60" viewBox="0 0 65 60" fill="none" xmlns="http://www.w3.org/2000/svg">
<path fill-rule="evenodd" clip-rule="evenodd" d="M15.1877 12.0903L32.9949 1.80936C35.7204 0.235815 39.0783 0.235816 41.8037 1.80936L59.6109 12.0903C62.3364 13.6639 64.0153 16.5719 64.0153 19.719V40.281C64.0153 43.4281 62.3364 46.3361 59.6109 47.9096L41.8037 58.1906C39.0783 59.7642 35.7204 59.7642 32.9949 58.1906L15.1877 47.9096C12.4622 46.3361 10.7833 43.4281 10.7833 40.281V19.719C10.7833 16.5719 12.4622 13.6639 15.1877 12.0903ZM32.6803 1.26445C35.6004 -0.421485 39.1982 -0.421485 42.1183 1.26446L59.9255 11.5454C62.8457 13.2314 64.6445 16.3471 64.6445 19.719V40.281C64.6445 43.6529 62.8457 46.7686 59.9255 48.4546L42.1183 58.7355C39.1982 60.4215 35.6004 60.4215 32.6803 58.7355L14.8731 48.4545C11.953 46.7686 10.1541 43.6529 10.1541 40.281V19.719C10.1541 16.3471 11.953 13.2314 14.8731 11.5454L32.6803 1.26445Z" fill="#D93833"/>
<path d="M12.996 27.5058C11.8087 26.8314 10.346 26.8314 9.1588 27.5058L1.91903 31.6182C0.73181 32.2926 0.000450134 33.5389 0.000450134 34.8876V43.1124C0.000450134 44.4611 0.73181 45.7074 1.91903 46.3818L9.1588 50.4942C10.346 51.1686 11.8087 51.1686 12.996 50.4942L20.2357 46.3818C21.4229 45.7074 22.1543 44.4611 22.1543 43.1124V34.8876C22.1543 33.5389 21.4229 32.2926 20.2357 31.6182L12.996 27.5058Z" fill="#D93833"/>
</svg>
