<svg width="311" height="90" viewBox="0 0 311 90" fill="none" xmlns="http://www.w3.org/2000/svg">
<path opacity="0.5" d="M206.042 -223.047C198.048 -229.204 187.376 -230.628 178.047 -226.783L67.3785 -181.17C58.0493 -177.325 51.4801 -168.795 50.1455 -158.793L34.3136 -40.1446C32.979 -30.1428 37.0817 -20.1887 45.0762 -14.0319L139.913 59.003C147.907 65.1597 158.579 66.5837 167.908 62.7386L278.576 17.1254C287.905 13.2803 294.475 4.75021 295.809 -5.25164L311.641 -123.9C312.976 -133.902 308.873 -143.856 300.879 -150.012L206.042 -223.047Z" stroke="#D93833"/>
<path d="M203.3 -189.616C195.305 -195.773 184.633 -197.197 175.304 -193.351L94.0337 -159.855C84.7045 -156.01 78.1353 -147.48 76.8007 -137.478L65.1743 -50.3474C63.8397 -40.3455 67.9424 -30.3914 75.937 -24.2346L145.581 29.3993C153.576 35.5561 164.247 36.9801 173.577 33.1349L254.847 -0.361554C264.176 -4.20666 270.745 -12.7368 272.08 -22.7386L283.706 -109.869C285.041 -119.871 280.938 -129.825 272.944 -135.982L203.3 -189.616Z" stroke="#D93833"/>
</svg>
